<?xml version="1.0" encoding="UTF-8" standalone="no"?>
<!DOCTYPE svg PUBLIC "-//W3C//DTD SVG 1.1//EN" "http://www.w3.org/Graphics/SVG/1.1/DTD/svg11.dtd">
<svg width="100%" height="100%" viewBox="0 0 1080 1080" version="1.1" xmlns="http://www.w3.org/2000/svg" xmlns:xlink="http://www.w3.org/1999/xlink" xml:space="preserve" xmlns:serif="http://www.serif.com/" style="fill-rule:evenodd;clip-rule:evenodd;stroke-miterlimit:10;">
    <g transform="matrix(1,0,0,1,-1310.16,0)">
        <g id="Page-2" serif:id="Page 2" transform="matrix(1,0,0,1,1310.16,0)">
            <rect x="0" y="0" width="1080" height="1080" style="fill:none;"/>
            <clipPath id="_clip1">
                <rect x="0" y="0" width="1080" height="1080"/>
            </clipPath>
            <g clip-path="url(#_clip1)">
                <g id="Layer-2" serif:id="Layer 2">
                    <rect x="0" y="0" width="1079.04" height="1080"/>
                    <g transform="matrix(0,-573.948,-573.948,0,540,842.841)">
                        <path d="M0.862,-0.078C0.862,-0.078 0.862,-0.078 0.862,-0.078C0.842,-0.061 0.834,-0.045 0.831,-0.034C0.829,-0.026 0.828,-0.017 0.821,-0.012C0.814,-0.008 0.807,-0.011 0.798,-0.012C0.788,-0.013 0.773,-0.013 0.754,-0.005L0.754,-0.005L0.75,0L0.754,0.005L0.754,0.005C0.773,0.013 0.788,0.013 0.798,0.012C0.807,0.011 0.814,0.008 0.821,0.012C0.828,0.017 0.829,0.026 0.831,0.034C0.834,0.045 0.842,0.061 0.862,0.078C0.862,0.078 0.862,0.078 0.862,0.078C0.891,0.136 0.896,0.276 0.877,0.334C0.866,0.369 0.845,0.399 0.824,0.426C0.817,0.436 0.805,0.443 0.798,0.453C0.776,0.484 0.764,0.523 0.725,0.537C0.664,0.558 0.608,0.477 0.602,0.477C0.595,0.486 0.583,0.496 0.575,0.504C0.575,0.509 0.576,0.51 0.576,0.515C0.597,0.526 0.608,0.539 0.614,0.548C0.619,0.557 0.62,0.563 0.626,0.575C0.635,0.594 0.645,0.607 0.652,0.616C0.652,0.616 0.66,0.628 0.663,0.64C0.68,0.698 0.648,0.755 0.628,0.786C0.586,0.85 0.443,0.959 0.246,0.882C0.151,0.845 0.112,0.757 0.092,0.707C0.079,0.671 0.074,0.615 0.09,0.576C0.104,0.542 0.133,0.512 0.158,0.488L0.158,0.488C0.166,0.482 0.173,0.476 0.18,0.47C0.188,0.461 0.198,0.453 0.205,0.444C0.211,0.434 0.211,0.423 0.218,0.413C0.226,0.4 0.25,0.381 0.264,0.376C0.305,0.361 0.383,0.442 0.425,0.444C0.428,0.438 0.41,0.414 0.403,0.406C0.397,0.4 0.387,0.392 0.381,0.384C0.371,0.376 0.36,0.367 0.35,0.358C0.335,0.338 0.318,0.318 0.304,0.298C0.292,0.283 0.283,0.257 0.268,0.245C0.259,0.238 0.244,0.237 0.233,0.23C0.204,0.212 0.175,0.186 0.156,0.157C0.145,0.14 0.145,0.126 0.145,0.113C0.145,0.1 0.145,0.088 0.134,0.073C0.123,0.059 0.109,0.05 0.112,0.041C0.115,0.032 0.136,0.039 0.14,0.024C0.141,0.021 0.141,0.019 0.142,0.017C0.142,0.015 0.143,0.01 0.143,0.001C0.143,0 0.143,0 0.143,0L0.143,0C0.143,0 0.143,0 0.143,-0.001C0.143,-0.01 0.142,-0.015 0.142,-0.017C0.141,-0.019 0.141,-0.021 0.14,-0.024C0.136,-0.039 0.115,-0.032 0.112,-0.041C0.109,-0.05 0.123,-0.059 0.134,-0.073C0.145,-0.088 0.145,-0.1 0.145,-0.113C0.145,-0.126 0.145,-0.14 0.156,-0.157C0.175,-0.186 0.204,-0.212 0.233,-0.23C0.244,-0.237 0.259,-0.238 0.268,-0.245C0.283,-0.257 0.292,-0.283 0.304,-0.298C0.318,-0.318 0.335,-0.338 0.35,-0.358C0.36,-0.367 0.371,-0.376 0.381,-0.384C0.387,-0.392 0.397,-0.4 0.403,-0.406C0.41,-0.414 0.428,-0.438 0.425,-0.444C0.383,-0.442 0.305,-0.361 0.264,-0.376C0.25,-0.381 0.226,-0.4 0.218,-0.413C0.211,-0.423 0.211,-0.434 0.205,-0.444C0.198,-0.453 0.188,-0.461 0.18,-0.47C0.173,-0.476 0.166,-0.482 0.158,-0.488L0.158,-0.488C0.133,-0.512 0.104,-0.542 0.09,-0.576C0.074,-0.615 0.079,-0.671 0.092,-0.707C0.112,-0.757 0.151,-0.845 0.246,-0.882C0.443,-0.959 0.586,-0.85 0.628,-0.786C0.648,-0.755 0.68,-0.698 0.663,-0.64C0.66,-0.628 0.652,-0.616 0.652,-0.616C0.645,-0.607 0.635,-0.594 0.626,-0.575C0.62,-0.563 0.619,-0.557 0.614,-0.548C0.608,-0.539 0.597,-0.526 0.576,-0.515C0.576,-0.51 0.575,-0.509 0.575,-0.504C0.583,-0.496 0.595,-0.486 0.602,-0.477C0.608,-0.477 0.664,-0.558 0.725,-0.537C0.764,-0.523 0.776,-0.484 0.798,-0.453C0.805,-0.443 0.817,-0.436 0.824,-0.426C0.845,-0.399 0.866,-0.369 0.877,-0.334C0.885,-0.311 0.888,-0.276 0.888,-0.237C0.888,-0.178 0.88,-0.113 0.862,-0.078Z" style="fill:url(#_Linear2);fill-rule:nonzero;"/>
                    </g>
                    <g transform="matrix(1,0,0,1,991.076,646.785)">
                        <path d="M0,-164.414C-17.764,-176.06 -50.448,-194.131 -83.561,-184.667C-90.365,-182.718 -97.451,-178.108 -97.451,-178.108C-102.551,-173.963 -110.331,-168.331 -120.769,-163.323C-127.958,-159.873 -131.224,-159.207 -136.279,-156.071C-141.837,-152.622 -149.118,-146.462 -155.417,-134.623C-158.113,-134.267 -159.133,-134.132 -161.829,-133.777C-166.329,-138.579 -172.011,-145.221 -177.261,-149.212C-177.397,-153.122 -130.797,-184.826 -143.069,-220.122C-150.866,-242.532 -173.252,-249.336 -191.188,-261.902C-196.937,-265.923 -200.885,-272.96 -206.377,-277.092C-221.984,-288.849 -239.123,-300.802 -259.547,-307.483C-292.413,-318.209 -373.085,-315.489 -406.41,-298.622C-406.415,-298.62 -406.419,-298.617 -406.422,-298.613C-416.095,-286.931 -425.086,-282.607 -431.745,-280.892C-435.967,-279.805 -441.308,-279.237 -443.994,-274.988C-446.427,-271.14 -445.02,-266.9 -444.409,-261.902C-443.691,-256.031 -443.882,-247.551 -448.197,-236.574C-448.922,-235.94 -449.711,-235.311 -450.57,-234.7C-450.738,-234.58 -450.907,-234.479 -451.076,-234.364C-451.244,-234.479 -451.414,-234.58 -451.582,-234.7C-452.44,-235.311 -453.229,-235.94 -453.954,-236.574L-453.955,-236.574C-458.269,-247.551 -458.46,-256.031 -457.743,-261.902C-457.132,-266.9 -455.724,-271.14 -458.157,-274.988C-460.844,-279.237 -466.184,-279.805 -470.407,-280.892C-477.065,-282.607 -486.057,-286.931 -495.729,-298.613C-495.732,-298.617 -495.736,-298.62 -495.741,-298.622C-529.066,-315.489 -609.738,-318.209 -642.604,-307.483C-663.029,-300.802 -680.167,-288.849 -695.774,-277.092C-701.266,-272.96 -705.214,-265.923 -710.963,-261.902C-728.899,-249.336 -751.285,-242.532 -759.083,-220.122C-771.354,-184.826 -724.754,-153.122 -724.891,-149.212C-730.141,-145.221 -735.823,-138.579 -740.322,-133.777C-743.018,-134.132 -744.039,-134.267 -746.734,-134.623C-753.033,-146.462 -760.314,-152.622 -765.873,-156.071C-770.928,-159.207 -774.193,-159.873 -781.382,-163.323C-791.82,-168.331 -799.601,-173.963 -804.7,-178.108C-804.7,-178.108 -811.786,-182.718 -818.59,-184.667C-851.703,-194.131 -884.387,-176.06 -902.151,-164.414C-939.2,-140.103 -1001.58,-58.307 -957.576,54.693C-936.214,109.553 -885.576,131.693 -856.57,143.252C-836.023,150.779 -803.842,153.795 -781.873,144.515C-762.405,136.301 -745.192,119.518 -731.229,105.272C-727.845,101.054 -724.474,96.825 -721.09,92.607C-715.585,88.415 -711.233,82.297 -705.9,78.681C-700.445,74.979 -693.702,74.709 -688.173,71.08C-680.817,66.262 -669.587,52.507 -666.658,44.501C-658.027,20.939 -704.834,-23.846 -705.9,-47.924C-702.688,-49.664 -688.664,-39.023 -684.385,-35.272C-680.695,-31.533 -676,-25.82 -671.721,-22.608C-666.658,-16.699 -661.594,-10.789 -656.519,-4.88C-645.032,3.873 -633.667,13.386 -622.339,21.711C-613.463,28.232 -598.837,33.517 -591.96,41.963C-587.424,47.517 -586.934,56.001 -583.096,62.229C-572.786,78.901 -557.56,95.758 -541.316,106.534C-521.71,119.541 -510.049,106.263 -493.197,119.199C-485.15,125.376 -479.908,133.415 -474.576,131.693C-469.506,130.056 -473.47,118.119 -464.576,115.693C-463.407,115.374 -462.226,115.07 -460.84,114.819C-459.836,114.637 -456.573,114.08 -451.364,114.191C-451.358,114.192 -451.353,114.199 -451.348,114.199C-451.253,114.196 -451.17,114.197 -451.076,114.195C-450.981,114.197 -450.899,114.196 -450.804,114.199C-450.798,114.199 -450.793,114.192 -450.788,114.191C-445.578,114.08 -442.315,114.637 -441.312,114.819C-439.926,115.07 -438.744,115.374 -437.576,115.693C-428.682,118.119 -432.646,130.056 -427.576,131.693C-422.244,133.415 -417.001,125.376 -408.955,119.199C-392.103,106.263 -380.441,119.541 -360.835,106.534C-344.592,95.758 -329.365,78.901 -319.055,62.229C-315.218,56.001 -314.728,47.517 -310.191,41.963C-303.314,33.517 -288.688,28.232 -279.812,21.711C-268.484,13.386 -257.12,3.873 -245.633,-4.88C-240.557,-10.789 -235.494,-16.699 -230.431,-22.608C-226.152,-25.82 -221.457,-31.533 -217.767,-35.272C-213.488,-39.023 -199.463,-49.664 -196.251,-47.924C-197.317,-23.846 -244.125,20.939 -235.494,44.501C-232.564,52.507 -221.334,66.262 -213.979,71.08C-208.449,74.709 -201.707,74.979 -196.251,78.681C-190.918,82.297 -186.566,88.415 -181.062,92.607C-177.678,96.825 -174.307,101.054 -170.923,105.272C-156.959,119.518 -139.747,136.301 -120.279,144.515C-98.31,153.795 -66.128,150.779 -45.581,143.252C-16.576,131.693 34.063,109.553 55.424,54.693C99.424,-58.307 37.048,-140.103 0,-164.414Z" style="fill:none;fill-rule:nonzero;stroke:url(#_Linear3);stroke-width:7px;"/>
                    </g>
                    <g opacity="0.3">
                        <g transform="matrix(1,0,0,1,192.177,507.811)">
                            <path d="M0,166.007L-2.449,163.557L-2.449,162.784L-111.899,14.591L-103.855,8.65L-2.449,145.952L-2.449,0L108.965,105.498L108.965,1.333L221.317,89.61L219.168,2.564L337.825,75.13L338.695,11.552L348.695,11.62L348.695,74.102L466.128,2.664L465.156,88.063L576.453,1.389L576.453,105.498L687.867,0L687.867,146.272L789.271,8.654L797.321,14.586L686.893,164.452L684.206,162.473L677.867,162.473L677.867,23.241L566.453,128.738L566.453,21.851L454.921,108.708L455.923,20.576L348.695,85.807L348.695,93.5L342.389,89.644L337.585,92.565L337.665,86.755L229.618,20.677L231.382,92.123L227.156,106.914L118.965,21.908L118.965,128.738L7.551,23.241L7.551,159.491L7.559,159.502L7.551,159.509L7.551,161.486L5.253,161.486L0,166.007Z" style="fill-rule:nonzero;"/>
                        </g>
                        <g transform="matrix(1,0,0,1,93.2993,730.634)">
                            <path d="M0,-199.112L0,-14.69C0,-12.286 2.624,-10.803 4.684,-12.042L95.125,-66.468C96.588,-67.348 98.487,-66.876 99.367,-65.413L99.2,-65.823C98.556,-67.404 99.316,-69.207 100.897,-69.851L210.049,-114.284C210.258,-114.369 210.476,-114.431 210.698,-114.469L322.228,-133.377L440.885,-147.22C441.003,-147.235 441.123,-147.241 441.243,-147.241L442.919,-147.241C443.04,-147.241 443.16,-147.235 443.28,-147.22L561.408,-133.311L672.475,-114.469C672.697,-114.431 672.915,-114.369 673.123,-114.284L785.574,-68.508C785.726,-68.446 785.873,-68.372 786.013,-68.287L878.479,-12.147C880.539,-10.897 883.173,-12.379 883.173,-14.789L883.173,-199.112C883.173,-200.819 881.79,-202.202 880.083,-202.202L3.09,-202.202C1.384,-202.202 0,-200.819 0,-199.112M896.479,19.839L777.897,-52.156C777.757,-52.241 777.611,-52.316 777.459,-52.377L668.165,-96.868C667.957,-96.953 667.739,-97.015 667.517,-97.053L558.623,-115.527L442.436,-129.195C442.197,-129.223 441.956,-129.223 441.717,-129.195L324.545,-115.526L215.656,-97.053C215.434,-97.015 215.216,-96.953 215.007,-96.868L106.917,-52.867L107.055,-52.639L-13.316,19.798C-15.376,21.037 -18,19.554 -18,17.15L-18,-217.112C-18,-218.819 -16.616,-220.202 -14.91,-220.202L898.083,-220.202C899.79,-220.202 901.173,-218.819 901.173,-217.112L901.173,17.198C901.173,19.607 898.539,21.09 896.479,19.839" style="fill-rule:nonzero;"/>
                        </g>
                        <g transform="matrix(0,-1,-1,0,763.886,599.518)">
                            <path d="M-25.482,-25.482C-39.555,-25.482 -50.964,-14.073 -50.964,0C-50.964,14.073 -39.555,25.482 -25.482,25.482C-11.409,25.482 0,14.073 0,0C0,-14.073 -11.409,-25.482 -25.482,-25.482" style="fill-rule:nonzero;"/>
                        </g>
                        <g transform="matrix(0,-1,-1,0,874.835,493.586)">
                            <path d="M-25.482,-25.482C-39.555,-25.482 -50.963,-14.073 -50.963,-0.001C-50.963,14.073 -39.555,25.482 -25.482,25.482C-11.409,25.482 -0.001,14.073 -0.001,-0.001C-0.001,-14.073 -11.409,-25.482 -25.482,-25.482" style="fill-rule:nonzero;"/>
                        </g>
                        <g transform="matrix(0,-1,-1,0,874.757,644.663)">
                            <path d="M-25.482,-25.481C-39.555,-25.481 -50.963,-14.073 -50.963,0C-50.963,14.074 -39.555,25.482 -25.482,25.482C-11.409,25.482 0,14.074 0,0C0,-14.073 -11.409,-25.481 -25.482,-25.481" style="fill-rule:nonzero;"/>
                        </g>
                        <g transform="matrix(0,-1,-1,0,985.757,493.555)">
                            <path d="M-25.481,-25.482C-39.554,-25.482 -50.963,-14.073 -50.963,0C-50.963,14.073 -39.554,25.481 -25.481,25.481C-11.408,25.481 0,14.073 0,0C0,-14.073 -11.408,-25.482 -25.481,-25.482" style="fill-rule:nonzero;"/>
                        </g>
                        <g transform="matrix(0,-1,-1,0,985.678,711.663)">
                            <path d="M-25.481,-25.482C-39.554,-25.482 -50.963,-14.074 -50.963,-0.001C-50.963,14.073 -39.554,25.481 -25.481,25.481C-11.408,25.481 0,14.073 0,-0.001C0,-14.074 -11.408,-25.482 -25.481,-25.482" style="fill-rule:nonzero;"/>
                        </g>
                        <g transform="matrix(0,-1,-1,0,763.678,493.505)">
                            <path d="M-25.482,-25.482C-39.555,-25.482 -50.964,-14.073 -50.964,0C-50.964,14.073 -39.555,25.482 -25.482,25.482C-11.409,25.482 0,14.073 0,0C0,-14.073 -11.409,-25.482 -25.482,-25.482" style="fill-rule:nonzero;"/>
                        </g>
                        <g transform="matrix(0,-1,-1,0,652.836,580.662)">
                            <path d="M-25.482,-25.482C-39.555,-25.482 -50.963,-14.073 -50.963,-0.001C-50.963,14.073 -39.555,25.482 -25.482,25.482C-11.409,25.482 -0.001,14.073 -0.001,-0.001C-0.001,-14.073 -11.409,-25.482 -25.482,-25.482" style="fill-rule:nonzero;"/>
                        </g>
                        <g transform="matrix(0,-1,-1,0,652.915,493.601)">
                            <path d="M-25.481,-25.482C-39.554,-25.482 -50.963,-14.074 -50.963,-0.001C-50.963,14.073 -39.554,25.481 -25.481,25.481C-11.408,25.481 0,14.073 0,-0.001C0,-14.074 -11.408,-25.482 -25.481,-25.482" style="fill-rule:nonzero;"/>
                        </g>
                        <g transform="matrix(0,-1,-1,0,534.915,493.662)">
                            <path d="M-25.482,-25.482C-39.555,-25.482 -50.963,-14.073 -50.963,-0.001C-50.963,14.073 -39.555,25.482 -25.482,25.482C-11.409,25.482 -0.001,14.073 -0.001,-0.001C-0.001,-14.073 -11.409,-25.482 -25.482,-25.482" style="fill-rule:nonzero;"/>
                        </g>
                        <g transform="matrix(0,-1,-1,0,535,566.663)">
                            <path d="M-25.482,-25.481C-39.555,-25.481 -50.963,-14.072 -50.963,0.001C-50.963,14.074 -39.555,25.482 -25.482,25.482C-11.409,25.482 0,14.074 0,0.001C0,-14.072 -11.409,-25.481 -25.482,-25.481" style="fill-rule:nonzero;"/>
                        </g>
                        <g transform="matrix(0,-1,-1,0,416.999,493.61)">
                            <path d="M-25.481,-25.482C-39.554,-25.482 -50.963,-14.073 -50.963,0C-50.963,14.073 -39.554,25.481 -25.481,25.481C-11.408,25.481 0,14.073 0,0C0,-14.073 -11.408,-25.482 -25.481,-25.482" style="fill-rule:nonzero;"/>
                        </g>
                        <g transform="matrix(0,-1,-1,0,417.083,580.662)">
                            <path d="M-25.482,-25.482C-39.555,-25.482 -50.963,-14.073 -50.963,-0.001C-50.963,14.073 -39.555,25.482 -25.482,25.482C-11.409,25.482 -0.001,14.073 -0.001,-0.001C-0.001,-14.073 -11.409,-25.482 -25.482,-25.482" style="fill-rule:nonzero;"/>
                        </g>
                        <g transform="matrix(0,-1,-1,0,306.083,493.601)">
                            <path d="M-25.482,-25.482C-39.555,-25.482 -50.963,-14.073 -50.963,-0.001C-50.963,14.073 -39.555,25.482 -25.482,25.482C-11.409,25.482 -0.001,14.073 -0.001,-0.001C-0.001,-14.073 -11.409,-25.482 -25.482,-25.482" style="fill-rule:nonzero;"/>
                        </g>
                        <g transform="matrix(0,-1,-1,0,195.163,493.663)">
                            <path d="M-25.481,-25.482C-39.554,-25.482 -50.963,-14.073 -50.963,0C-50.963,14.073 -39.554,25.481 -25.481,25.481C-11.408,25.481 0,14.073 0,0C0,-14.073 -11.408,-25.482 -25.481,-25.482" style="fill-rule:nonzero;"/>
                        </g>
                        <g transform="matrix(0,-1,-1,0,84.2431,493.663)">
                            <path d="M-25.482,-25.481C-39.555,-25.481 -50.963,-14.073 -50.963,0C-50.963,14.074 -39.555,25.482 -25.482,25.482C-11.409,25.482 0,14.074 0,0C0,-14.073 -11.409,-25.481 -25.482,-25.481" style="fill-rule:nonzero;"/>
                        </g>
                        <g transform="matrix(0,-1,-1,0,84.3217,712.662)">
                            <path d="M-25.482,-25.482C-39.555,-25.482 -50.964,-14.073 -50.964,0C-50.964,14.073 -39.555,25.482 -25.482,25.482C-11.409,25.482 0,14.073 0,0C0,-14.073 -11.409,-25.482 -25.482,-25.482" style="fill-rule:nonzero;"/>
                        </g>
                        <g transform="matrix(0,-1,-1,0,306.163,599.663)">
                            <path d="M-25.481,-25.482C-39.554,-25.482 -50.963,-14.073 -50.963,0C-50.963,14.073 -39.554,25.481 -25.481,25.481C-11.408,25.481 0,14.073 0,0C0,-14.073 -11.408,-25.482 -25.481,-25.482" style="fill-rule:nonzero;"/>
                        </g>
                        <g transform="matrix(0,-1,-1,0,195.163,644.586)">
                            <path d="M-25.482,-25.482C-39.555,-25.482 -50.963,-14.073 -50.963,0C-50.963,14.073 -39.555,25.482 -25.482,25.482C-11.409,25.482 0,14.073 0,0C0,-14.073 -11.409,-25.482 -25.482,-25.482" style="fill-rule:nonzero;"/>
                        </g>
                        <g transform="matrix(0,-1,-1,0,84.0202,497.703)">
                            <path d="M-21.47,-21.47C-33.327,-21.47 -42.94,-11.858 -42.94,0C-42.94,11.858 -33.327,21.47 -21.47,21.47C-9.613,21.47 0,11.858 0,0C0,-11.858 -9.613,-21.47 -21.47,-21.47" style="fill-rule:nonzero;"/>
                        </g>
                        <g transform="matrix(0,-1,-1,0,194.864,497.703)">
                            <path d="M-21.47,-21.47C-33.327,-21.47 -42.939,-11.858 -42.939,0C-42.939,11.857 -33.327,21.47 -21.47,21.47C-9.612,21.47 0,11.857 0,0C0,-11.858 -9.612,-21.47 -21.47,-21.47" style="fill-rule:nonzero;"/>
                        </g>
                        <g transform="matrix(0,-1,-1,0,305.708,497.703)">
                            <path d="M-21.47,-21.47C-33.327,-21.47 -42.94,-11.858 -42.94,0C-42.94,11.857 -33.327,21.47 -21.47,21.47C-9.613,21.47 0,11.857 0,0C0,-11.858 -9.613,-21.47 -21.47,-21.47" style="fill-rule:nonzero;"/>
                        </g>
                        <g transform="matrix(0,-1,-1,0,416.553,497.703)">
                            <path d="M-21.47,-21.47C-33.327,-21.47 -42.939,-11.858 -42.939,0C-42.939,11.857 -33.327,21.47 -21.47,21.47C-9.612,21.47 0,11.857 0,0C0,-11.858 -9.612,-21.47 -21.47,-21.47" style="fill-rule:nonzero;"/>
                        </g>
                        <g transform="matrix(0,-1,-1,0,535.385,497.703)">
                            <path d="M-21.47,-21.47C-33.327,-21.47 -42.94,-11.858 -42.94,0C-42.94,11.857 -33.327,21.47 -21.47,21.47C-9.613,21.47 0,11.857 0,0C0,-11.858 -9.613,-21.47 -21.47,-21.47" style="fill-rule:nonzero;"/>
                        </g>
                        <g transform="matrix(0,-1,-1,0,653.22,497.703)">
                            <path d="M-21.47,-21.47C-33.327,-21.47 -42.939,-11.858 -42.939,0C-42.939,11.857 -33.327,21.47 -21.47,21.47C-9.612,21.47 0,11.857 0,0C0,-11.858 -9.612,-21.47 -21.47,-21.47" style="fill-rule:nonzero;"/>
                        </g>
                        <g transform="matrix(0,-1,-1,0,764.063,497.703)">
                            <path d="M-21.47,-21.47C-33.327,-21.47 -42.94,-11.857 -42.94,0C-42.94,11.858 -33.327,21.47 -21.47,21.47C-9.613,21.47 0,11.858 0,0C0,-11.857 -9.613,-21.47 -21.47,-21.47" style="fill-rule:nonzero;"/>
                        </g>
                        <g transform="matrix(0,-1,-1,0,874.907,497.703)">
                            <path d="M-21.47,-21.47C-33.327,-21.47 -42.939,-11.858 -42.939,0C-42.939,11.857 -33.327,21.47 -21.47,21.47C-9.612,21.47 0,11.857 0,0C0,-11.858 -9.612,-21.47 -21.47,-21.47" style="fill-rule:nonzero;"/>
                        </g>
                        <g transform="matrix(0,-1,-1,0,985.751,497.703)">
                            <path d="M-21.47,-21.47C-33.327,-21.47 -42.94,-11.858 -42.94,0C-42.94,11.858 -33.327,21.47 -21.47,21.47C-9.613,21.47 0,11.858 0,0C0,-11.858 -9.613,-21.47 -21.47,-21.47" style="fill-rule:nonzero;"/>
                        </g>
                        <g transform="matrix(0,-1,-1,0,84.0202,716.193)">
                            <path d="M-21.47,-21.47C-33.327,-21.47 -42.94,-11.858 -42.94,0C-42.94,11.858 -33.327,21.47 -21.47,21.47C-9.613,21.47 0,11.858 0,0C0,-11.858 -9.613,-21.47 -21.47,-21.47" style="fill-rule:nonzero;"/>
                        </g>
                        <g transform="matrix(0,-1,-1,0,194.864,648.529)">
                            <path d="M-21.47,-21.47C-33.327,-21.47 -42.939,-11.858 -42.939,0C-42.939,11.857 -33.327,21.47 -21.47,21.47C-9.612,21.47 0,11.857 0,0C0,-11.858 -9.612,-21.47 -21.47,-21.47" style="fill-rule:nonzero;"/>
                        </g>
                        <g transform="matrix(0,-1,-1,0,305.708,603.579)">
                            <path d="M-21.47,-21.47C-33.327,-21.47 -42.94,-11.858 -42.94,0C-42.94,11.857 -33.327,21.47 -21.47,21.47C-9.613,21.47 0,11.857 0,0C0,-11.858 -9.613,-21.47 -21.47,-21.47" style="fill-rule:nonzero;"/>
                        </g>
                        <g transform="matrix(0,-1,-1,0,416.553,584.581)">
                            <path d="M-21.47,-21.47C-33.327,-21.47 -42.939,-11.858 -42.939,0C-42.939,11.857 -33.327,21.47 -21.47,21.47C-9.612,21.47 0,11.857 0,0C0,-11.858 -9.612,-21.47 -21.47,-21.47" style="fill-rule:nonzero;"/>
                        </g>
                        <g transform="matrix(0,-1,-1,0,535.385,570.6)">
                            <path d="M-21.47,-21.47C-33.327,-21.47 -42.94,-11.858 -42.94,0C-42.94,11.857 -33.327,21.47 -21.47,21.47C-9.613,21.47 0,11.857 0,0C0,-11.858 -9.613,-21.47 -21.47,-21.47" style="fill-rule:nonzero;"/>
                        </g>
                        <g transform="matrix(0,-1,-1,0,653.22,584.581)">
                            <path d="M-21.47,-21.47C-33.327,-21.47 -42.939,-11.858 -42.939,0C-42.939,11.857 -33.327,21.47 -21.47,21.47C-9.612,21.47 0,11.857 0,0C0,-11.858 -9.612,-21.47 -21.47,-21.47" style="fill-rule:nonzero;"/>
                        </g>
                        <g transform="matrix(0,-1,-1,0,764.063,603.579)">
                            <path d="M-21.47,-21.47C-33.327,-21.47 -42.94,-11.857 -42.94,0C-42.94,11.858 -33.327,21.47 -21.47,21.47C-9.613,21.47 0,11.858 0,0C0,-11.857 -9.613,-21.47 -21.47,-21.47" style="fill-rule:nonzero;"/>
                        </g>
                        <g transform="matrix(0,-1,-1,0,874.907,648.529)">
                            <path d="M-21.47,-21.47C-33.327,-21.47 -42.939,-11.858 -42.939,0C-42.939,11.857 -33.327,21.47 -21.47,21.47C-9.612,21.47 0,11.857 0,0C0,-11.858 -9.612,-21.47 -21.47,-21.47" style="fill-rule:nonzero;"/>
                        </g>
                        <g transform="matrix(0,-1,-1,0,985.751,716.193)">
                            <path d="M-21.47,-21.47C-33.327,-21.47 -42.94,-11.858 -42.94,0C-42.94,11.858 -33.327,21.47 -21.47,21.47C-9.613,21.47 0,11.858 0,0C0,-11.858 -9.613,-21.47 -21.47,-21.47" style="fill-rule:nonzero;"/>
                        </g>
                        <g transform="matrix(1,0,0,1,150.125,406.152)">
                            <path d="M0,80.612C0,81.729 -0.194,82.722 -0.582,83.595C-0.97,84.468 -1.491,85.195 -2.146,85.778C-2.801,86.36 -3.577,86.785 -4.474,87.05C-5.372,87.317 -6.282,87.451 -7.202,87.451L-15.351,87.451C-17.049,87.451 -18.516,87.281 -19.752,86.942C-20.989,86.603 -22.129,85.985 -23.172,85.086C-24.215,84.19 -25.221,82.976 -26.191,81.448C-27.162,79.921 -28.253,77.945 -29.465,75.519L-52.892,31.503C-54.25,28.884 -55.633,26.059 -57.039,23.027C-58.446,19.996 -59.707,17.05 -60.822,14.188L-60.968,14.188C-60.774,17.679 -60.629,21.16 -60.531,24.628C-60.435,28.096 -60.386,31.674 -60.386,35.359L-60.386,84.613C-60.386,85.099 -60.52,85.535 -60.786,85.923C-61.053,86.312 -61.514,86.639 -62.168,86.905C-62.823,87.172 -63.708,87.378 -64.824,87.524C-65.94,87.669 -67.37,87.742 -69.116,87.742C-70.814,87.742 -72.221,87.669 -73.335,87.524C-74.453,87.378 -75.325,87.172 -75.955,86.905C-76.586,86.639 -77.022,86.312 -77.265,85.923C-77.508,85.535 -77.628,85.099 -77.628,84.613L-77.628,0.001C-77.628,-2.279 -76.962,-3.989 -75.627,-5.129C-74.294,-6.267 -72.657,-6.838 -70.716,-6.838L-60.458,-6.838C-58.616,-6.838 -57.064,-6.68 -55.802,-6.366C-54.542,-6.05 -53.414,-5.529 -52.419,-4.801C-51.425,-4.074 -50.491,-3.066 -49.618,-1.782C-48.745,-0.496 -47.848,1.092 -46.926,2.984L-28.592,37.396C-27.526,39.482 -26.471,41.532 -25.427,43.544C-24.385,45.557 -23.379,47.57 -22.408,49.582C-21.438,51.595 -20.492,53.572 -19.571,55.512C-18.65,57.452 -17.751,59.393 -16.879,61.332L-16.806,61.332C-16.952,57.938 -17.061,54.397 -17.134,50.71C-17.206,47.025 -17.242,43.508 -17.242,40.161L-17.242,-4.001C-17.242,-4.486 -17.097,-4.922 -16.806,-5.31C-16.515,-5.698 -16.031,-6.038 -15.351,-6.329C-14.672,-6.62 -13.775,-6.826 -12.659,-6.948C-11.543,-7.068 -10.113,-7.13 -8.366,-7.13C-6.718,-7.13 -5.336,-7.068 -4.22,-6.948C-3.104,-6.826 -2.244,-6.62 -1.637,-6.329C-1.031,-6.038 -0.607,-5.698 -0.363,-5.31C-0.122,-4.922 0,-4.486 0,-4.001L0,80.612Z" style="fill-rule:nonzero;"/>
                        </g>
                        <g transform="matrix(1,0,0,1,218.096,409.94)">
                            <path d="M0,76.294C0,77.65 -0.06,78.783 -0.176,79.695C-0.293,80.607 -0.468,81.343 -0.701,81.903C-0.936,82.465 -1.228,82.875 -1.578,83.131C-1.928,83.389 -2.314,83.517 -2.735,83.517L-48.315,83.517C-49.857,83.517 -51.155,83.061 -52.207,82.149C-53.259,81.238 -53.785,79.754 -53.785,77.696L-53.785,-1.402C-53.785,-3.459 -53.259,-4.943 -52.207,-5.855C-51.155,-6.767 -49.857,-7.223 -48.315,-7.223L-3.016,-7.223C-2.595,-7.223 -2.221,-7.105 -1.894,-6.872C-1.567,-6.638 -1.287,-6.228 -1.052,-5.644C-0.819,-5.06 -0.644,-4.312 -0.526,-3.401C-0.41,-2.489 -0.351,-1.332 -0.351,0.07C-0.351,1.38 -0.41,2.49 -0.526,3.401C-0.644,4.313 -0.819,5.049 -1.052,5.61C-1.287,6.171 -1.567,6.581 -1.894,6.837C-2.221,7.095 -2.595,7.223 -3.016,7.223L-35.412,7.223L-35.412,29.381L-7.994,29.381C-7.574,29.381 -7.188,29.511 -6.837,29.767C-6.487,30.025 -6.195,30.422 -5.96,30.959C-5.727,31.498 -5.552,32.222 -5.435,33.133C-5.319,34.044 -5.259,35.156 -5.259,36.464C-5.259,37.82 -5.319,38.943 -5.435,39.83C-5.552,40.718 -5.727,41.432 -5.96,41.969C-6.195,42.506 -6.487,42.893 -6.837,43.126C-7.188,43.36 -7.574,43.476 -7.994,43.476L-35.412,43.476L-35.412,69.071L-2.735,69.071C-2.314,69.071 -1.928,69.201 -1.578,69.457C-1.228,69.714 -0.936,70.123 -0.701,70.684C-0.468,71.245 -0.293,71.982 -0.176,72.893C-0.06,73.805 0,74.939 0,76.294" style="fill-rule:nonzero;"/>
                        </g>
                        <g transform="matrix(1,0,0,1,302.669,437.711)">
                            <path d="M0,21.947C0,27.51 -0.818,32.489 -2.455,36.884C-4.091,41.278 -6.499,44.994 -9.677,48.032C-12.856,51.072 -16.784,53.386 -21.458,54.975C-26.133,56.564 -31.51,57.36 -37.586,57.36C-43.29,57.36 -48.409,56.646 -52.943,55.22C-57.478,53.795 -61.312,51.634 -64.443,48.734C-67.576,45.836 -69.972,42.225 -71.631,37.9C-73.291,33.576 -74.12,28.516 -74.12,22.718L-74.12,-32.468C-74.12,-32.935 -73.98,-33.356 -73.699,-33.731C-73.419,-34.104 -72.917,-34.408 -72.192,-34.642C-71.468,-34.876 -70.521,-35.063 -69.352,-35.203C-68.184,-35.343 -66.687,-35.413 -64.864,-35.413C-63.088,-35.413 -61.615,-35.343 -60.446,-35.203C-59.278,-35.063 -58.342,-34.876 -57.642,-34.642C-56.94,-34.408 -56.438,-34.104 -56.134,-33.731C-55.83,-33.356 -55.678,-32.935 -55.678,-32.468L-55.678,21.106C-55.678,24.706 -55.234,27.826 -54.346,30.467C-53.458,33.109 -52.184,35.295 -50.524,37.024C-48.865,38.754 -46.877,40.051 -44.563,40.915C-42.25,41.781 -39.667,42.213 -36.814,42.213C-33.917,42.213 -31.322,41.769 -29.031,40.88C-26.741,39.993 -24.8,38.696 -23.211,36.989C-21.622,35.283 -20.395,33.179 -19.529,30.677C-18.665,28.177 -18.232,25.337 -18.232,22.157L-18.232,-32.468C-18.232,-32.935 -18.092,-33.356 -17.812,-33.731C-17.531,-34.104 -17.04,-34.408 -16.338,-34.642C-15.638,-34.876 -14.691,-35.063 -13.499,-35.203C-12.307,-35.343 -10.823,-35.413 -9.046,-35.413C-7.27,-35.413 -5.809,-35.343 -4.664,-35.203C-3.519,-35.063 -2.595,-34.876 -1.893,-34.642C-1.192,-34.408 -0.701,-34.104 -0.421,-33.731C-0.141,-33.356 0,-32.935 0,-32.468L0,21.947Z" style="fill-rule:nonzero;"/>
                        </g>
                        <g transform="matrix(1,0,0,1,360.176,467.091)">
                            <path d="M0,-37.586C0,-40.577 -0.678,-43.102 -2.033,-45.16C-3.39,-47.216 -5.61,-48.666 -8.695,-49.507C-9.631,-49.74 -10.694,-49.927 -11.886,-50.068C-13.078,-50.208 -14.726,-50.278 -16.829,-50.278L-25.104,-50.278L-25.104,-24.544L-15.708,-24.544C-13.09,-24.544 -10.799,-24.858 -8.835,-25.49C-6.872,-26.121 -5.236,-27.008 -3.927,-28.154C-2.619,-29.3 -1.637,-30.667 -0.981,-32.256C-0.328,-33.846 0,-35.623 0,-37.586M23.772,23.982C23.772,24.497 23.677,24.929 23.491,25.279C23.304,25.63 22.86,25.922 22.159,26.156C21.458,26.389 20.429,26.552 19.074,26.646C17.717,26.74 15.871,26.787 13.534,26.787C11.57,26.787 10.004,26.74 8.835,26.646C7.667,26.552 6.743,26.377 6.066,26.121C5.388,25.864 4.909,25.537 4.628,25.139C4.348,24.743 4.113,24.262 3.927,23.702L-4.207,3.436C-5.189,1.146 -6.148,-0.887 -7.082,-2.665C-8.018,-4.441 -9.058,-5.926 -10.203,-7.118C-11.349,-8.31 -12.669,-9.209 -14.165,-9.817C-15.662,-10.424 -17.391,-10.729 -19.354,-10.729L-25.104,-10.729L-25.104,23.842C-25.104,24.31 -25.256,24.73 -25.56,25.104C-25.864,25.479 -26.366,25.782 -27.067,26.016C-27.769,26.25 -28.705,26.436 -29.873,26.577C-31.041,26.717 -32.537,26.787 -34.36,26.787C-36.137,26.787 -37.621,26.717 -38.813,26.577C-40.005,26.436 -40.952,26.25 -41.653,26.016C-42.354,25.782 -42.845,25.479 -43.126,25.104C-43.406,24.73 -43.546,24.31 -43.546,23.842L-43.546,-58.553C-43.546,-60.609 -43.021,-62.094 -41.969,-63.005C-40.917,-63.918 -39.619,-64.373 -38.077,-64.373L-14.585,-64.373C-12.201,-64.373 -10.238,-64.326 -8.695,-64.232C-7.152,-64.138 -5.75,-64.023 -4.488,-63.882C-0.841,-63.367 2.442,-62.48 5.365,-61.217C8.286,-59.956 10.764,-58.308 12.797,-56.274C14.831,-54.24 16.385,-51.832 17.46,-49.051C18.536,-46.269 19.074,-43.079 19.074,-39.48C19.074,-36.44 18.687,-33.67 17.917,-31.169C17.146,-28.668 16.011,-26.437 14.516,-24.473C13.019,-22.51 11.172,-20.802 8.976,-19.354C6.778,-17.904 4.278,-16.735 1.473,-15.848C2.828,-15.192 4.102,-14.399 5.294,-13.464C6.486,-12.528 7.608,-11.395 8.66,-10.063C9.712,-8.731 10.705,-7.211 11.64,-5.504C12.575,-3.798 13.487,-1.87 14.375,0.28L22.019,18.162C22.72,19.939 23.187,21.236 23.421,22.054C23.654,22.872 23.772,23.515 23.772,23.982" style="fill-rule:nonzero;"/>
                        </g>
                        <g transform="matrix(1,0,0,1,454.006,448.158)">
                            <path d="M0,-0.141C0,-4.909 -0.375,-9.245 -1.122,-13.149C-1.871,-17.051 -3.145,-20.394 -4.944,-23.176C-6.744,-25.957 -9.14,-28.108 -12.131,-29.627C-15.124,-31.146 -18.863,-31.907 -23.351,-31.907C-27.886,-31.907 -31.673,-31.053 -34.711,-29.347C-37.75,-27.64 -40.205,-25.361 -42.074,-22.51C-43.944,-19.658 -45.265,-16.327 -46.036,-12.517C-46.808,-8.707 -47.193,-4.675 -47.193,-0.421C-47.193,4.534 -46.819,8.987 -46.071,12.937C-45.324,16.888 -44.062,20.265 -42.285,23.07C-40.508,25.875 -38.124,28.014 -35.132,29.486C-32.141,30.959 -28.377,31.695 -23.842,31.695C-19.308,31.695 -15.521,30.854 -12.482,29.171C-9.443,27.488 -6.989,25.198 -5.119,22.298C-3.25,19.401 -1.928,16.023 -1.157,12.166C-0.386,8.309 0,4.207 0,-0.141M19.354,-1.122C19.354,6.405 18.418,13.137 16.549,19.073C14.679,25.01 11.896,30.047 8.205,34.185C4.511,38.322 -0.06,41.477 -5.504,43.651C-10.951,45.825 -17.25,46.912 -24.403,46.912C-31.462,46.912 -37.622,45.988 -42.88,44.142C-48.14,42.296 -52.522,39.479 -56.028,35.692C-59.535,31.905 -62.164,27.091 -63.917,21.247C-65.67,15.403 -66.547,8.484 -66.547,0.49C-66.547,-6.849 -65.612,-13.452 -63.742,-19.32C-61.873,-25.186 -59.091,-30.177 -55.397,-34.29C-51.705,-38.404 -47.135,-41.559 -41.688,-43.757C-36.243,-45.954 -29.919,-47.053 -22.72,-47.053C-15.848,-47.053 -9.782,-46.141 -4.523,-44.318C0.736,-42.495 5.13,-39.69 8.66,-35.904C12.189,-32.117 14.854,-27.336 16.654,-21.563C18.453,-15.789 19.354,-8.976 19.354,-1.122" style="fill-rule:nonzero;"/>
                        </g>
                        <g transform="matrix(1,0,0,1,557.935,409.31)">
                            <path d="M0,77.696C0,78.772 -0.187,79.73 -0.561,80.571C-0.936,81.412 -1.438,82.113 -2.069,82.675C-2.699,83.236 -3.448,83.645 -4.313,83.902C-5.179,84.158 -6.055,84.287 -6.943,84.287L-14.796,84.287C-16.434,84.287 -17.847,84.124 -19.039,83.797C-20.231,83.47 -21.33,82.874 -22.334,82.008C-23.34,81.144 -24.31,79.975 -25.245,78.503C-26.181,77.029 -27.232,75.126 -28.4,72.787L-50.979,30.363C-52.289,27.839 -53.621,25.115 -54.977,22.194C-56.333,19.272 -57.548,16.433 -58.623,13.674L-58.764,13.674C-58.577,17.04 -58.437,20.395 -58.343,23.737C-58.25,27.079 -58.203,30.528 -58.203,34.079L-58.203,81.552C-58.203,82.02 -58.332,82.441 -58.588,82.815C-58.846,83.19 -59.29,83.505 -59.92,83.761C-60.552,84.019 -61.405,84.217 -62.48,84.358C-63.556,84.498 -64.934,84.568 -66.617,84.568C-68.254,84.568 -69.61,84.498 -70.684,84.358C-71.761,84.217 -72.602,84.019 -73.209,83.761C-73.817,83.505 -74.238,83.19 -74.471,82.815C-74.706,82.441 -74.822,82.02 -74.822,81.552L-74.822,0C-74.822,-2.198 -74.18,-3.845 -72.894,-4.944C-71.608,-6.042 -70.03,-6.592 -68.16,-6.592L-58.272,-6.592C-56.497,-6.592 -55.001,-6.44 -53.785,-6.137C-52.57,-5.831 -51.483,-5.33 -50.524,-4.629C-49.567,-3.927 -48.666,-2.956 -47.824,-1.719C-46.983,-0.479 -46.119,1.051 -45.23,2.875L-27.559,36.043C-26.531,38.053 -25.514,40.029 -24.508,41.968C-23.504,43.909 -22.534,45.849 -21.598,47.788C-20.664,49.729 -19.752,51.634 -18.863,53.503C-17.976,55.374 -17.11,57.244 -16.269,59.113L-16.199,59.113C-16.339,55.842 -16.444,52.428 -16.514,48.875C-16.584,45.323 -16.62,41.933 -16.62,38.707L-16.62,-3.857C-16.62,-4.324 -16.479,-4.745 -16.199,-5.119C-15.918,-5.493 -15.452,-5.821 -14.796,-6.101C-14.143,-6.382 -13.277,-6.58 -12.202,-6.697C-11.127,-6.813 -9.748,-6.872 -8.064,-6.872C-6.476,-6.872 -5.144,-6.813 -4.068,-6.697C-2.993,-6.58 -2.163,-6.382 -1.578,-6.101C-0.994,-5.821 -0.586,-5.493 -0.351,-5.119C-0.118,-4.745 0,-4.324 0,-3.857L0,77.696Z" style="fill-rule:nonzero;"/>
                        </g>
                        <g transform="matrix(1,0,0,1,633.88,426.922)">
                            <path d="M0,39.282C0,37.083 -0.366,35.117 -1.1,33.382C-1.832,31.648 -2.907,30.195 -4.324,29.022C-5.741,27.849 -7.548,26.946 -9.746,26.31C-11.945,25.676 -14.803,25.357 -18.321,25.357L-29.753,25.357L-29.753,52.326L-15.83,52.326C-13.143,52.326 -10.882,52.046 -9.05,51.484C-7.218,50.923 -5.631,50.091 -4.287,48.991C-2.944,47.892 -1.894,46.525 -1.135,44.887C-0.379,43.252 0,41.383 0,39.282M-4.91,-1.318C-4.91,-3.224 -5.203,-4.933 -5.789,-6.448C-6.375,-7.962 -7.255,-9.22 -8.428,-10.222C-9.6,-11.223 -11.078,-11.993 -12.862,-12.531C-14.646,-13.068 -17.027,-13.337 -20.006,-13.337L-29.753,-13.337L-29.753,11.286L-18.981,11.286C-16.196,11.286 -13.973,10.957 -12.312,10.298C-10.651,9.637 -9.271,8.734 -8.171,7.586C-7.072,6.438 -6.254,5.094 -5.716,3.555C-5.179,2.016 -4.91,0.392 -4.91,-1.318M20.007,38.622C20.007,41.993 19.542,45.047 18.615,47.782C17.686,50.519 16.404,52.938 14.767,55.038C13.13,57.139 11.176,58.948 8.904,60.461C6.633,61.976 4.128,63.222 1.393,64.199C-1.344,65.176 -4.263,65.896 -7.365,66.36C-10.469,66.825 -13.924,67.056 -17.735,67.056L-42.944,67.056C-44.558,67.056 -45.913,66.58 -47.013,65.628C-48.112,64.675 -48.662,63.124 -48.662,60.974L-48.662,-21.692C-48.662,-23.841 -48.112,-25.393 -47.013,-26.345C-45.913,-27.298 -44.558,-27.774 -42.944,-27.774L-19.127,-27.774C-13.313,-27.774 -8.391,-27.285 -4.36,-26.308C-0.329,-25.331 3.065,-23.853 5.827,-21.875C8.586,-19.896 10.7,-17.392 12.166,-14.363C13.632,-11.333 14.364,-7.768 14.364,-3.664C14.364,-1.367 14.071,0.796 13.485,2.822C12.898,4.85 12.042,6.695 10.919,8.355C9.795,10.016 8.416,11.483 6.779,12.752C5.142,14.023 3.273,15.049 1.173,15.83C3.859,16.319 6.339,17.175 8.611,18.395C10.883,19.617 12.862,21.193 14.547,23.122C16.232,25.053 17.563,27.312 18.542,29.901C19.519,32.491 20.007,35.397 20.007,38.622" style="fill-rule:nonzero;"/>
                        </g>
                        <g transform="matrix(1,0,0,1,706.448,467.613)">
                            <path d="M0,-37.587C0,-40.578 -0.679,-43.103 -2.034,-45.16C-3.39,-47.217 -5.61,-48.667 -8.696,-49.508C-9.631,-49.741 -10.694,-49.928 -11.886,-50.069C-13.079,-50.209 -14.727,-50.279 -16.83,-50.279L-25.104,-50.279L-25.104,-24.544L-15.708,-24.544C-13.09,-24.544 -10.799,-24.859 -8.836,-25.491C-6.873,-26.122 -5.236,-27.009 -3.928,-28.155C-2.619,-29.3 -1.637,-30.668 -0.982,-32.257C-0.328,-33.846 0,-35.624 0,-37.587M23.772,23.981C23.772,24.496 23.677,24.928 23.491,25.278C23.304,25.629 22.86,25.921 22.159,26.155C21.458,26.388 20.429,26.551 19.073,26.645C17.717,26.739 15.87,26.787 13.534,26.787C11.569,26.787 10.003,26.739 8.835,26.645C7.666,26.551 6.742,26.376 6.065,26.12C5.387,25.864 4.909,25.536 4.627,25.138C4.347,24.742 4.113,24.262 3.926,23.701L-4.208,3.435C-5.189,1.145 -6.148,-0.888 -7.083,-2.666C-8.019,-4.441 -9.058,-5.926 -10.204,-7.119C-11.35,-8.311 -12.669,-9.21 -14.165,-9.818C-15.662,-10.425 -17.391,-10.73 -19.354,-10.73L-25.104,-10.73L-25.104,23.841C-25.104,24.309 -25.257,24.729 -25.56,25.103C-25.865,25.478 -26.367,25.781 -27.068,26.015C-27.769,26.249 -28.704,26.435 -29.873,26.576C-31.042,26.716 -32.537,26.787 -34.36,26.787C-36.138,26.787 -37.622,26.716 -38.813,26.576C-40.006,26.435 -40.953,26.249 -41.654,26.015C-42.355,25.781 -42.846,25.478 -43.126,25.103C-43.406,24.729 -43.547,24.309 -43.547,23.841L-43.547,-58.554C-43.547,-60.61 -43.021,-62.095 -41.969,-63.006C-40.917,-63.918 -39.62,-64.374 -38.078,-64.374L-14.586,-64.374C-12.202,-64.374 -10.238,-64.327 -8.696,-64.233C-7.153,-64.139 -5.75,-64.024 -4.488,-63.883C-0.842,-63.368 2.442,-62.481 5.364,-61.218C8.286,-59.956 10.764,-58.308 12.797,-56.275C14.831,-54.241 16.385,-51.833 17.46,-49.052C18.536,-46.27 19.073,-43.08 19.073,-39.48C19.073,-36.441 18.687,-33.671 17.916,-31.17C17.145,-28.669 16.011,-26.438 14.516,-24.474C13.018,-22.511 11.172,-20.803 8.976,-19.355C6.777,-17.905 4.277,-16.736 1.472,-15.849C2.828,-15.193 4.102,-14.4 5.294,-13.464C6.486,-12.529 7.608,-11.396 8.66,-10.064C9.712,-8.731 10.705,-7.212 11.641,-5.505C12.575,-3.799 13.486,-1.87 14.375,0.279L22.018,18.161C22.719,19.938 23.186,21.235 23.421,22.053C23.654,22.871 23.772,23.514 23.772,23.981" style="fill-rule:nonzero;"/>
                        </g>
                        <g transform="matrix(1,0,0,1,756.52,405.765)">
                            <path d="M0,85.689C0,86.157 -0.153,86.578 -0.456,86.951C-0.76,87.326 -1.262,87.629 -1.963,87.863C-2.665,88.097 -3.6,88.284 -4.769,88.424C-5.937,88.564 -7.433,88.635 -9.256,88.635C-11.033,88.635 -12.517,88.564 -13.708,88.424C-14.901,88.284 -15.847,88.097 -16.549,87.863C-17.25,87.629 -17.753,87.326 -18.057,86.951C-18.361,86.578 -18.513,86.157 -18.513,85.689L-18.513,-0.001C-18.513,-0.468 -18.361,-0.889 -18.057,-1.264C-17.753,-1.637 -17.239,-1.941 -16.514,-2.175C-15.79,-2.409 -14.843,-2.596 -13.674,-2.736C-12.505,-2.876 -11.033,-2.946 -9.256,-2.946C-7.433,-2.946 -5.937,-2.876 -4.769,-2.736C-3.6,-2.596 -2.665,-2.409 -1.963,-2.175C-1.262,-1.941 -0.76,-1.637 -0.456,-1.264C-0.153,-0.889 0,-0.468 0,-0.001L0,85.689Z" style="fill-rule:nonzero;"/>
                        </g>
                        <g transform="matrix(1,0,0,1,826.859,449.311)">
                            <path d="M0,-1.403C0,-5.703 -0.503,-9.7 -1.507,-13.394C-2.513,-17.086 -4.126,-20.289 -6.346,-23.001C-8.567,-25.712 -11.419,-27.827 -14.901,-29.347C-18.384,-30.865 -22.954,-31.626 -28.609,-31.626L-37.937,-31.626L-37.937,30.082L-28.329,30.082C-23.281,30.082 -19.027,29.428 -15.567,28.119C-12.108,26.81 -9.221,24.835 -6.907,22.194C-4.593,19.553 -2.864,16.268 -1.718,12.341C-0.573,8.414 0,3.833 0,-1.403M19.073,-2.034C19.073,6.287 17.987,13.405 15.813,19.319C13.64,25.233 10.519,30.059 6.451,33.799C2.384,37.539 -2.559,40.285 -8.38,42.038C-14.2,43.792 -21.131,44.668 -29.171,44.668L-50.839,44.668C-52.382,44.668 -53.68,44.212 -54.731,43.301C-55.782,42.389 -56.309,40.906 -56.309,38.847L-56.309,-40.251C-56.309,-42.308 -55.782,-43.792 -54.731,-44.704C-53.68,-45.615 -52.382,-46.071 -50.839,-46.071L-27.558,-46.071C-19.471,-46.071 -12.61,-45.125 -6.977,-43.231C-1.344,-41.338 3.401,-38.533 7.258,-34.817C11.115,-31.1 14.047,-26.507 16.059,-21.037C18.068,-15.568 19.073,-9.233 19.073,-2.034" style="fill-rule:nonzero;"/>
                        </g>
                        <g transform="matrix(1,0,0,1,928.123,479.885)">
                            <path d="M0,-62.55C0,-61.194 -0.059,-60.026 -0.175,-59.044C-0.292,-58.063 -0.455,-57.279 -0.666,-56.695C-0.876,-56.11 -1.133,-55.701 -1.437,-55.468C-1.742,-55.234 -2.103,-55.117 -2.524,-55.117C-3.132,-55.117 -4.114,-55.538 -5.469,-56.38C-6.826,-57.221 -8.625,-58.133 -10.869,-59.114C-13.112,-60.096 -15.79,-61.008 -18.898,-61.849C-22.007,-62.691 -25.619,-63.111 -29.732,-63.111C-34.127,-63.111 -38.1,-62.351 -41.653,-60.832C-45.206,-59.312 -48.245,-57.162 -50.769,-54.381C-53.293,-51.599 -55.233,-48.256 -56.589,-44.353C-57.945,-40.449 -58.623,-36.137 -58.623,-31.415C-58.623,-26.227 -57.933,-21.656 -56.554,-17.707C-55.176,-13.756 -53.248,-10.449 -50.769,-7.784C-48.292,-5.119 -45.311,-3.109 -41.828,-1.754C-38.346,-0.397 -34.5,0.28 -30.292,0.28C-28.236,0.28 -26.202,0.047 -24.192,-0.422C-22.183,-0.888 -20.312,-1.589 -18.582,-2.525L-18.582,-23.562L-35.762,-23.562C-36.604,-23.562 -37.259,-24.088 -37.726,-25.14C-38.194,-26.192 -38.428,-27.98 -38.428,-30.504C-38.428,-31.812 -38.369,-32.911 -38.252,-33.8C-38.135,-34.687 -37.96,-35.401 -37.726,-35.938C-37.493,-36.476 -37.212,-36.873 -36.884,-37.131C-36.558,-37.387 -36.183,-37.516 -35.762,-37.516L-5.119,-37.516C-4.372,-37.516 -3.705,-37.387 -3.121,-37.131C-2.536,-36.873 -2.022,-36.488 -1.577,-35.974C-1.133,-35.459 -0.795,-34.84 -0.561,-34.115C-0.327,-33.39 -0.209,-32.561 -0.209,-31.626L-0.209,4.487C-0.209,5.89 -0.455,7.117 -0.946,8.169C-1.437,9.221 -2.443,10.051 -3.961,10.658C-5.482,11.266 -7.362,11.898 -9.607,12.552C-11.85,13.207 -14.177,13.767 -16.584,14.234C-18.992,14.701 -21.422,15.052 -23.877,15.286C-26.331,15.52 -28.797,15.637 -31.275,15.637C-38.521,15.637 -45.007,14.596 -50.733,12.516C-56.46,10.437 -61.312,7.422 -65.284,3.471C-69.258,-0.479 -72.297,-5.295 -74.4,-10.975C-76.504,-16.655 -77.556,-23.094 -77.556,-30.294C-77.556,-37.727 -76.434,-44.399 -74.189,-50.314C-71.946,-56.227 -68.768,-61.253 -64.653,-65.39C-60.54,-69.528 -55.572,-72.694 -49.752,-74.892C-43.932,-77.089 -37.445,-78.187 -30.292,-78.187C-26.366,-78.187 -22.79,-77.918 -19.564,-77.382C-16.338,-76.843 -13.522,-76.189 -11.114,-75.418C-8.707,-74.647 -6.709,-73.816 -5.119,-72.928C-3.53,-72.04 -2.419,-71.268 -1.788,-70.614C-1.156,-69.959 -0.701,-69.037 -0.42,-67.844C-0.14,-66.653 0,-64.887 0,-62.55" style="fill-rule:nonzero;"/>
                        </g>
                        <g transform="matrix(1,0,0,1,994.886,410.462)">
                            <path d="M0,76.294C0,77.65 -0.059,78.783 -0.176,79.695C-0.292,80.607 -0.468,81.343 -0.701,81.904C-0.936,82.465 -1.227,82.875 -1.578,83.131C-1.928,83.389 -2.314,83.517 -2.735,83.517L-48.315,83.517C-49.857,83.517 -51.155,83.061 -52.207,82.149C-53.258,81.238 -53.785,79.754 -53.785,77.696L-53.785,-1.402C-53.785,-3.459 -53.258,-4.943 -52.207,-5.855C-51.155,-6.767 -49.857,-7.223 -48.315,-7.223L-3.016,-7.223C-2.595,-7.223 -2.222,-7.105 -1.894,-6.872C-1.567,-6.638 -1.287,-6.228 -1.052,-5.644C-0.819,-5.06 -0.644,-4.312 -0.526,-3.401C-0.41,-2.489 -0.351,-1.332 -0.351,0.071C-0.351,1.38 -0.41,2.49 -0.526,3.401C-0.644,4.313 -0.819,5.049 -1.052,5.61C-1.287,6.171 -1.567,6.581 -1.894,6.837C-2.222,7.095 -2.595,7.223 -3.016,7.223L-35.413,7.223L-35.413,29.382L-7.995,29.382C-7.574,29.382 -7.187,29.511 -6.837,29.767C-6.486,30.025 -6.195,30.423 -5.96,30.96C-5.727,31.498 -5.551,32.222 -5.435,33.133C-5.319,34.045 -5.259,35.156 -5.259,36.464C-5.259,37.821 -5.319,38.943 -5.435,39.83C-5.551,40.719 -5.727,41.432 -5.96,41.969C-6.195,42.507 -6.486,42.893 -6.837,43.126C-7.187,43.361 -7.574,43.477 -7.995,43.477L-35.413,43.477L-35.413,69.071L-2.735,69.071C-2.314,69.071 -1.928,69.201 -1.578,69.457C-1.227,69.714 -0.936,70.124 -0.701,70.684C-0.468,71.245 -0.292,71.982 -0.176,72.893C-0.059,73.805 0,74.939 0,76.294" style="fill-rule:nonzero;"/>
                        </g>
                    </g>
                    <g transform="matrix(1,0,0,1,197.177,502.811)">
                        <path d="M0,166.007L-2.449,163.557L-2.449,162.784L-111.899,14.591L-103.855,8.65L-2.449,145.952L-2.449,0L108.965,105.498L108.965,1.333L221.317,89.61L219.168,2.564L337.825,75.13L338.695,11.552L348.695,11.62L348.695,74.102L466.128,2.664L465.156,88.063L576.453,1.389L576.453,105.498L687.867,0L687.867,146.272L789.271,8.654L797.321,14.586L686.893,164.452L684.206,162.473L677.867,162.473L677.867,23.241L566.453,128.738L566.453,21.851L454.921,108.708L455.923,20.576L348.695,85.807L348.695,93.5L342.389,89.644L337.585,92.565L337.665,86.755L229.618,20.677L231.382,92.123L227.156,106.914L118.965,21.908L118.965,128.738L7.551,23.241L7.551,159.491L7.559,159.502L7.551,159.509L7.551,161.486L5.253,161.486L0,166.007Z" style="fill-rule:nonzero;"/>
                    </g>
                    <g transform="matrix(1,0,0,1,98.2993,725.634)">
                        <path d="M0,-199.112L0,-14.69C0,-12.286 2.624,-10.803 4.684,-12.042L95.125,-66.468C96.588,-67.348 98.487,-66.876 99.367,-65.413L99.2,-65.823C98.556,-67.404 99.316,-69.207 100.897,-69.851L210.049,-114.284C210.258,-114.369 210.476,-114.431 210.698,-114.469L322.228,-133.377L440.885,-147.22C441.003,-147.235 441.123,-147.241 441.243,-147.241L442.919,-147.241C443.04,-147.241 443.16,-147.235 443.28,-147.22L561.408,-133.311L672.475,-114.469C672.697,-114.431 672.915,-114.369 673.123,-114.284L785.574,-68.508C785.726,-68.446 785.873,-68.372 786.013,-68.287L878.479,-12.147C880.539,-10.897 883.173,-12.379 883.173,-14.789L883.173,-199.112C883.173,-200.819 881.79,-202.202 880.083,-202.202L3.09,-202.202C1.384,-202.202 0,-200.819 0,-199.112M896.479,19.839L777.897,-52.156C777.757,-52.241 777.611,-52.316 777.459,-52.377L668.165,-96.868C667.957,-96.953 667.739,-97.015 667.517,-97.053L558.623,-115.527L442.436,-129.195C442.197,-129.223 441.956,-129.223 441.717,-129.195L324.545,-115.526L215.656,-97.053C215.434,-97.015 215.216,-96.953 215.007,-96.868L106.917,-52.867L107.055,-52.639L-13.316,19.798C-15.376,21.037 -18,19.554 -18,17.15L-18,-217.112C-18,-218.819 -16.616,-220.202 -14.91,-220.202L898.083,-220.202C899.79,-220.202 901.173,-218.819 901.173,-217.112L901.173,17.198C901.173,19.607 898.539,21.09 896.479,19.839" style="fill-rule:nonzero;"/>
                    </g>
                    <g transform="matrix(0,-1,-1,0,768.886,594.518)">
                        <path d="M-25.482,-25.482C-39.555,-25.482 -50.964,-14.073 -50.964,0C-50.964,14.073 -39.555,25.482 -25.482,25.482C-11.409,25.482 0,14.073 0,0C0,-14.073 -11.409,-25.482 -25.482,-25.482" style="fill:rgb(174,221,222);fill-rule:nonzero;"/>
                    </g>
                    <g transform="matrix(0,-1,-1,0,879.835,488.586)">
                        <path d="M-25.482,-25.482C-39.555,-25.482 -50.963,-14.073 -50.963,-0.001C-50.963,14.073 -39.555,25.482 -25.482,25.482C-11.409,25.482 -0.001,14.073 -0.001,-0.001C-0.001,-14.073 -11.409,-25.482 -25.482,-25.482" style="fill:rgb(174,221,222);fill-rule:nonzero;"/>
                    </g>
                    <g transform="matrix(0,-1,-1,0,879.757,639.663)">
                        <path d="M-25.482,-25.481C-39.555,-25.481 -50.963,-14.073 -50.963,0C-50.963,14.074 -39.555,25.482 -25.482,25.482C-11.409,25.482 0,14.074 0,0C0,-14.073 -11.409,-25.481 -25.482,-25.481" style="fill:rgb(174,221,222);fill-rule:nonzero;"/>
                    </g>
                    <g transform="matrix(0,-1,-1,0,990.757,488.555)">
                        <path d="M-25.481,-25.482C-39.554,-25.482 -50.963,-14.073 -50.963,0C-50.963,14.073 -39.554,25.481 -25.481,25.481C-11.408,25.481 0,14.073 0,0C0,-14.073 -11.408,-25.482 -25.481,-25.482" style="fill:rgb(174,221,222);fill-rule:nonzero;"/>
                    </g>
                    <g transform="matrix(0,-1,-1,0,990.678,706.663)">
                        <path d="M-25.481,-25.482C-39.554,-25.482 -50.963,-14.074 -50.963,-0.001C-50.963,14.073 -39.554,25.481 -25.481,25.481C-11.408,25.481 0,14.073 0,-0.001C0,-14.074 -11.408,-25.482 -25.481,-25.482" style="fill:rgb(174,221,222);fill-rule:nonzero;"/>
                    </g>
                    <g transform="matrix(0,-1,-1,0,768.678,488.505)">
                        <path d="M-25.482,-25.482C-39.555,-25.482 -50.964,-14.073 -50.964,0C-50.964,14.073 -39.555,25.482 -25.482,25.482C-11.409,25.482 0,14.073 0,0C0,-14.073 -11.409,-25.482 -25.482,-25.482" style="fill:rgb(174,221,222);fill-rule:nonzero;"/>
                    </g>
                    <g transform="matrix(0,-1,-1,0,657.836,575.662)">
                        <path d="M-25.482,-25.482C-39.555,-25.482 -50.963,-14.073 -50.963,-0.001C-50.963,14.073 -39.555,25.482 -25.482,25.482C-11.409,25.482 -0.001,14.073 -0.001,-0.001C-0.001,-14.073 -11.409,-25.482 -25.482,-25.482" style="fill:rgb(174,221,222);fill-rule:nonzero;"/>
                    </g>
                    <g transform="matrix(0,-1,-1,0,657.915,488.601)">
                        <path d="M-25.481,-25.482C-39.554,-25.482 -50.963,-14.074 -50.963,-0.001C-50.963,14.073 -39.554,25.481 -25.481,25.481C-11.408,25.481 0,14.073 0,-0.001C0,-14.074 -11.408,-25.482 -25.481,-25.482" style="fill:rgb(174,221,222);fill-rule:nonzero;"/>
                    </g>
                    <g transform="matrix(0,-1,-1,0,539.915,488.662)">
                        <path d="M-25.482,-25.482C-39.555,-25.482 -50.963,-14.073 -50.963,-0.001C-50.963,14.073 -39.555,25.482 -25.482,25.482C-11.409,25.482 -0.001,14.073 -0.001,-0.001C-0.001,-14.073 -11.409,-25.482 -25.482,-25.482" style="fill:rgb(174,221,222);fill-rule:nonzero;"/>
                    </g>
                    <g transform="matrix(0,-1,-1,0,540,561.663)">
                        <path d="M-25.482,-25.481C-39.555,-25.481 -50.963,-14.072 -50.963,0.001C-50.963,14.074 -39.555,25.482 -25.482,25.482C-11.409,25.482 0,14.074 0,0.001C0,-14.072 -11.409,-25.481 -25.482,-25.481" style="fill:rgb(174,221,222);fill-rule:nonzero;"/>
                    </g>
                    <g transform="matrix(0,-1,-1,0,421.999,488.61)">
                        <path d="M-25.481,-25.482C-39.554,-25.482 -50.963,-14.073 -50.963,0C-50.963,14.073 -39.554,25.481 -25.481,25.481C-11.408,25.481 0,14.073 0,0C0,-14.073 -11.408,-25.482 -25.481,-25.482" style="fill:rgb(174,221,222);fill-rule:nonzero;"/>
                    </g>
                    <g transform="matrix(0,-1,-1,0,422.083,575.662)">
                        <path d="M-25.482,-25.482C-39.555,-25.482 -50.963,-14.073 -50.963,-0.001C-50.963,14.073 -39.555,25.482 -25.482,25.482C-11.409,25.482 -0.001,14.073 -0.001,-0.001C-0.001,-14.073 -11.409,-25.482 -25.482,-25.482" style="fill:rgb(174,221,222);fill-rule:nonzero;"/>
                    </g>
                    <g transform="matrix(0,-1,-1,0,311.083,488.601)">
                        <path d="M-25.482,-25.482C-39.555,-25.482 -50.963,-14.073 -50.963,-0.001C-50.963,14.073 -39.555,25.482 -25.482,25.482C-11.409,25.482 -0.001,14.073 -0.001,-0.001C-0.001,-14.073 -11.409,-25.482 -25.482,-25.482" style="fill:rgb(174,221,222);fill-rule:nonzero;"/>
                    </g>
                    <g transform="matrix(0,-1,-1,0,200.163,488.663)">
                        <path d="M-25.481,-25.482C-39.554,-25.482 -50.963,-14.073 -50.963,0C-50.963,14.073 -39.554,25.481 -25.481,25.481C-11.408,25.481 0,14.073 0,0C0,-14.073 -11.408,-25.482 -25.481,-25.482" style="fill:rgb(174,221,222);fill-rule:nonzero;"/>
                    </g>
                    <g transform="matrix(0,-1,-1,0,89.2431,488.663)">
                        <path d="M-25.482,-25.481C-39.555,-25.481 -50.963,-14.073 -50.963,0C-50.963,14.074 -39.555,25.482 -25.482,25.482C-11.409,25.482 0,14.074 0,0C0,-14.073 -11.409,-25.481 -25.482,-25.481" style="fill:rgb(174,221,222);fill-rule:nonzero;"/>
                    </g>
                    <g transform="matrix(0,-1,-1,0,89.3217,707.662)">
                        <path d="M-25.482,-25.482C-39.555,-25.482 -50.964,-14.073 -50.964,0C-50.964,14.073 -39.555,25.482 -25.482,25.482C-11.409,25.482 0,14.073 0,0C0,-14.073 -11.409,-25.482 -25.482,-25.482" style="fill:rgb(174,221,222);fill-rule:nonzero;"/>
                    </g>
                    <g transform="matrix(0,-1,-1,0,311.163,594.663)">
                        <path d="M-25.481,-25.482C-39.554,-25.482 -50.963,-14.073 -50.963,0C-50.963,14.073 -39.554,25.481 -25.481,25.481C-11.408,25.481 0,14.073 0,0C0,-14.073 -11.408,-25.482 -25.481,-25.482" style="fill:rgb(174,221,222);fill-rule:nonzero;"/>
                    </g>
                    <g transform="matrix(0,-1,-1,0,200.163,639.586)">
                        <path d="M-25.482,-25.482C-39.555,-25.482 -50.963,-14.073 -50.963,0C-50.963,14.073 -39.555,25.482 -25.482,25.482C-11.409,25.482 0,14.073 0,0C0,-14.073 -11.409,-25.482 -25.482,-25.482" style="fill:rgb(174,221,222);fill-rule:nonzero;"/>
                    </g>
                    <g transform="matrix(0,-1,-1,0,89.0202,492.703)">
                        <path d="M-21.47,-21.47C-33.327,-21.47 -42.94,-11.858 -42.94,0C-42.94,11.858 -33.327,21.47 -21.47,21.47C-9.613,21.47 0,11.858 0,0C0,-11.858 -9.613,-21.47 -21.47,-21.47" style="fill:rgb(45,117,48);fill-rule:nonzero;"/>
                    </g>
                    <g transform="matrix(0,-1,-1,0,199.864,492.703)">
                        <path d="M-21.47,-21.47C-33.327,-21.47 -42.939,-11.858 -42.939,0C-42.939,11.857 -33.327,21.47 -21.47,21.47C-9.612,21.47 0,11.857 0,0C0,-11.858 -9.612,-21.47 -21.47,-21.47" style="fill:rgb(42,97,135);fill-rule:nonzero;"/>
                    </g>
                    <g transform="matrix(0,-1,-1,0,310.708,492.703)">
                        <path d="M-21.47,-21.47C-33.327,-21.47 -42.94,-11.858 -42.94,0C-42.94,11.857 -33.327,21.47 -21.47,21.47C-9.613,21.47 0,11.857 0,0C0,-11.858 -9.613,-21.47 -21.47,-21.47" style="fill:rgb(45,117,48);fill-rule:nonzero;"/>
                    </g>
                    <g transform="matrix(0,-1,-1,0,421.553,492.703)">
                        <path d="M-21.47,-21.47C-33.327,-21.47 -42.939,-11.858 -42.939,0C-42.939,11.857 -33.327,21.47 -21.47,21.47C-9.612,21.47 0,11.857 0,0C0,-11.858 -9.612,-21.47 -21.47,-21.47" style="fill:rgb(132,41,126);fill-rule:nonzero;"/>
                    </g>
                    <g transform="matrix(0,-1,-1,0,540.385,492.703)">
                        <path d="M-21.47,-21.47C-33.327,-21.47 -42.94,-11.858 -42.94,0C-42.94,11.857 -33.327,21.47 -21.47,21.47C-9.613,21.47 0,11.857 0,0C0,-11.858 -9.613,-21.47 -21.47,-21.47" style="fill:rgb(42,97,135);fill-rule:nonzero;"/>
                    </g>
                    <g transform="matrix(0,-1,-1,0,658.22,492.703)">
                        <path d="M-21.47,-21.47C-33.327,-21.47 -42.939,-11.858 -42.939,0C-42.939,11.857 -33.327,21.47 -21.47,21.47C-9.612,21.47 0,11.857 0,0C0,-11.858 -9.612,-21.47 -21.47,-21.47" style="fill:rgb(45,117,48);fill-rule:nonzero;"/>
                    </g>
                    <g transform="matrix(0,-1,-1,0,769.063,492.703)">
                        <path d="M-21.47,-21.47C-33.327,-21.47 -42.94,-11.857 -42.94,0C-42.94,11.858 -33.327,21.47 -21.47,21.47C-9.613,21.47 0,11.858 0,0C0,-11.857 -9.613,-21.47 -21.47,-21.47" style="fill:rgb(42,97,135);fill-rule:nonzero;"/>
                    </g>
                    <g transform="matrix(0,-1,-1,0,879.907,492.703)">
                        <path d="M-21.47,-21.47C-33.327,-21.47 -42.939,-11.858 -42.939,0C-42.939,11.857 -33.327,21.47 -21.47,21.47C-9.612,21.47 0,11.857 0,0C0,-11.858 -9.612,-21.47 -21.47,-21.47" style="fill:rgb(45,117,48);fill-rule:nonzero;"/>
                    </g>
                    <g transform="matrix(0,-1,-1,0,990.751,492.703)">
                        <path d="M-21.47,-21.47C-33.327,-21.47 -42.94,-11.858 -42.94,0C-42.94,11.858 -33.327,21.47 -21.47,21.47C-9.613,21.47 0,11.858 0,0C0,-11.858 -9.613,-21.47 -21.47,-21.47" style="fill:rgb(132,41,126);fill-rule:nonzero;"/>
                    </g>
                    <g transform="matrix(0,-1,-1,0,89.0202,711.193)">
                        <path d="M-21.47,-21.47C-33.327,-21.47 -42.94,-11.858 -42.94,0C-42.94,11.858 -33.327,21.47 -21.47,21.47C-9.613,21.47 0,11.858 0,0C0,-11.858 -9.613,-21.47 -21.47,-21.47" style="fill:rgb(42,97,135);fill-rule:nonzero;"/>
                    </g>
                    <g transform="matrix(0,-1,-1,0,199.864,643.529)">
                        <path d="M-21.47,-21.47C-33.327,-21.47 -42.939,-11.858 -42.939,0C-42.939,11.857 -33.327,21.47 -21.47,21.47C-9.612,21.47 0,11.857 0,0C0,-11.858 -9.612,-21.47 -21.47,-21.47" style="fill:rgb(132,41,126);fill-rule:nonzero;"/>
                    </g>
                    <g transform="matrix(0,-1,-1,0,310.708,598.579)">
                        <path d="M-21.47,-21.47C-33.327,-21.47 -42.94,-11.858 -42.94,0C-42.94,11.857 -33.327,21.47 -21.47,21.47C-9.613,21.47 0,11.857 0,0C0,-11.858 -9.613,-21.47 -21.47,-21.47" style="fill:rgb(42,97,135);fill-rule:nonzero;"/>
                    </g>
                    <g transform="matrix(0,-1,-1,0,421.553,579.581)">
                        <path d="M-21.47,-21.47C-33.327,-21.47 -42.939,-11.858 -42.939,0C-42.939,11.857 -33.327,21.47 -21.47,21.47C-9.612,21.47 0,11.857 0,0C0,-11.858 -9.612,-21.47 -21.47,-21.47" style="fill:rgb(45,117,48);fill-rule:nonzero;"/>
                    </g>
                    <g transform="matrix(0,-1,-1,0,540.385,565.6)">
                        <path d="M-21.47,-21.47C-33.327,-21.47 -42.94,-11.858 -42.94,0C-42.94,11.857 -33.327,21.47 -21.47,21.47C-9.613,21.47 0,11.857 0,0C0,-11.858 -9.613,-21.47 -21.47,-21.47" style="fill:rgb(132,41,126);fill-rule:nonzero;"/>
                    </g>
                    <g transform="matrix(0,-1,-1,0,658.22,579.581)">
                        <path d="M-21.47,-21.47C-33.327,-21.47 -42.939,-11.858 -42.939,0C-42.939,11.857 -33.327,21.47 -21.47,21.47C-9.612,21.47 0,11.857 0,0C0,-11.858 -9.612,-21.47 -21.47,-21.47" style="fill:rgb(42,97,135);fill-rule:nonzero;"/>
                    </g>
                    <g transform="matrix(0,-1,-1,0,769.063,598.579)">
                        <path d="M-21.47,-21.47C-33.327,-21.47 -42.94,-11.857 -42.94,0C-42.94,11.858 -33.327,21.47 -21.47,21.47C-9.613,21.47 0,11.858 0,0C0,-11.857 -9.613,-21.47 -21.47,-21.47" style="fill:rgb(132,41,126);fill-rule:nonzero;"/>
                    </g>
                    <g transform="matrix(0,-1,-1,0,879.907,643.529)">
                        <path d="M-21.47,-21.47C-33.327,-21.47 -42.939,-11.858 -42.939,0C-42.939,11.857 -33.327,21.47 -21.47,21.47C-9.612,21.47 0,11.857 0,0C0,-11.858 -9.612,-21.47 -21.47,-21.47" style="fill:rgb(42,97,135);fill-rule:nonzero;"/>
                    </g>
                    <g transform="matrix(0,-1,-1,0,990.751,711.193)">
                        <path d="M-21.47,-21.47C-33.327,-21.47 -42.94,-11.858 -42.94,0C-42.94,11.858 -33.327,21.47 -21.47,21.47C-9.613,21.47 0,11.858 0,0C0,-11.858 -9.613,-21.47 -21.47,-21.47" style="fill:rgb(45,117,48);fill-rule:nonzero;"/>
                    </g>
                    <g transform="matrix(1,0,0,1,155.125,401.152)">
                        <path d="M0,80.612C0,81.729 -0.194,82.722 -0.582,83.595C-0.97,84.468 -1.491,85.195 -2.146,85.778C-2.801,86.36 -3.577,86.785 -4.474,87.05C-5.372,87.317 -6.282,87.451 -7.202,87.451L-15.351,87.451C-17.049,87.451 -18.516,87.281 -19.752,86.942C-20.989,86.603 -22.129,85.985 -23.172,85.086C-24.215,84.19 -25.221,82.976 -26.191,81.448C-27.162,79.921 -28.253,77.945 -29.465,75.519L-52.892,31.503C-54.25,28.884 -55.633,26.059 -57.039,23.027C-58.446,19.996 -59.707,17.05 -60.822,14.188L-60.968,14.188C-60.774,17.679 -60.629,21.16 -60.531,24.628C-60.435,28.096 -60.386,31.674 -60.386,35.359L-60.386,84.613C-60.386,85.099 -60.52,85.535 -60.786,85.923C-61.053,86.312 -61.514,86.639 -62.168,86.905C-62.823,87.172 -63.708,87.378 -64.824,87.524C-65.94,87.669 -67.37,87.742 -69.116,87.742C-70.814,87.742 -72.221,87.669 -73.335,87.524C-74.453,87.378 -75.325,87.172 -75.955,86.905C-76.586,86.639 -77.022,86.312 -77.265,85.923C-77.508,85.535 -77.628,85.099 -77.628,84.613L-77.628,0.001C-77.628,-2.279 -76.962,-3.989 -75.627,-5.129C-74.294,-6.267 -72.657,-6.838 -70.716,-6.838L-60.458,-6.838C-58.616,-6.838 -57.064,-6.68 -55.802,-6.366C-54.542,-6.05 -53.414,-5.529 -52.419,-4.801C-51.425,-4.074 -50.491,-3.066 -49.618,-1.782C-48.745,-0.496 -47.848,1.092 -46.926,2.984L-28.592,37.396C-27.526,39.482 -26.471,41.532 -25.427,43.544C-24.385,45.557 -23.379,47.57 -22.408,49.582C-21.438,51.595 -20.492,53.572 -19.571,55.512C-18.65,57.452 -17.751,59.393 -16.879,61.332L-16.806,61.332C-16.952,57.938 -17.061,54.397 -17.134,50.71C-17.206,47.025 -17.242,43.508 -17.242,40.161L-17.242,-4.001C-17.242,-4.486 -17.097,-4.922 -16.806,-5.31C-16.515,-5.698 -16.031,-6.038 -15.351,-6.329C-14.672,-6.62 -13.775,-6.826 -12.659,-6.948C-11.543,-7.068 -10.113,-7.13 -8.366,-7.13C-6.718,-7.13 -5.336,-7.068 -4.22,-6.948C-3.104,-6.826 -2.244,-6.62 -1.637,-6.329C-1.031,-6.038 -0.607,-5.698 -0.363,-5.31C-0.122,-4.922 0,-4.486 0,-4.001L0,80.612Z" style="fill:white;fill-rule:nonzero;"/>
                    </g>
                    <g transform="matrix(1,0,0,1,223.096,404.94)">
                        <path d="M0,76.294C0,77.65 -0.06,78.783 -0.176,79.695C-0.293,80.607 -0.468,81.343 -0.701,81.903C-0.936,82.465 -1.228,82.875 -1.578,83.131C-1.928,83.389 -2.314,83.517 -2.735,83.517L-48.315,83.517C-49.857,83.517 -51.155,83.061 -52.207,82.149C-53.259,81.238 -53.785,79.754 -53.785,77.696L-53.785,-1.402C-53.785,-3.459 -53.259,-4.943 -52.207,-5.855C-51.155,-6.767 -49.857,-7.223 -48.315,-7.223L-3.016,-7.223C-2.595,-7.223 -2.221,-7.105 -1.894,-6.872C-1.567,-6.638 -1.287,-6.228 -1.052,-5.644C-0.819,-5.06 -0.644,-4.312 -0.526,-3.401C-0.41,-2.489 -0.351,-1.332 -0.351,0.07C-0.351,1.38 -0.41,2.49 -0.526,3.401C-0.644,4.313 -0.819,5.049 -1.052,5.61C-1.287,6.171 -1.567,6.581 -1.894,6.837C-2.221,7.095 -2.595,7.223 -3.016,7.223L-35.412,7.223L-35.412,29.381L-7.994,29.381C-7.574,29.381 -7.188,29.511 -6.837,29.767C-6.487,30.025 -6.195,30.422 -5.96,30.959C-5.727,31.498 -5.552,32.222 -5.435,33.133C-5.319,34.044 -5.259,35.156 -5.259,36.464C-5.259,37.82 -5.319,38.943 -5.435,39.83C-5.552,40.718 -5.727,41.432 -5.96,41.969C-6.195,42.506 -6.487,42.893 -6.837,43.126C-7.188,43.36 -7.574,43.476 -7.994,43.476L-35.412,43.476L-35.412,69.071L-2.735,69.071C-2.314,69.071 -1.928,69.201 -1.578,69.457C-1.228,69.714 -0.936,70.123 -0.701,70.684C-0.468,71.245 -0.293,71.982 -0.176,72.893C-0.06,73.805 0,74.939 0,76.294" style="fill:white;fill-rule:nonzero;"/>
                    </g>
                    <g transform="matrix(1,0,0,1,307.669,432.711)">
                        <path d="M0,21.947C0,27.51 -0.818,32.489 -2.455,36.884C-4.091,41.278 -6.499,44.994 -9.677,48.032C-12.856,51.072 -16.784,53.386 -21.458,54.975C-26.133,56.564 -31.51,57.36 -37.586,57.36C-43.29,57.36 -48.409,56.646 -52.943,55.22C-57.478,53.795 -61.312,51.634 -64.443,48.734C-67.576,45.836 -69.972,42.225 -71.631,37.9C-73.291,33.576 -74.12,28.516 -74.12,22.718L-74.12,-32.468C-74.12,-32.935 -73.98,-33.356 -73.699,-33.731C-73.419,-34.104 -72.917,-34.408 -72.192,-34.642C-71.468,-34.876 -70.521,-35.063 -69.352,-35.203C-68.184,-35.343 -66.687,-35.413 -64.864,-35.413C-63.088,-35.413 -61.615,-35.343 -60.446,-35.203C-59.278,-35.063 -58.342,-34.876 -57.642,-34.642C-56.94,-34.408 -56.438,-34.104 -56.134,-33.731C-55.83,-33.356 -55.678,-32.935 -55.678,-32.468L-55.678,21.106C-55.678,24.706 -55.234,27.826 -54.346,30.467C-53.458,33.109 -52.184,35.295 -50.524,37.024C-48.865,38.754 -46.877,40.051 -44.563,40.915C-42.25,41.781 -39.667,42.213 -36.814,42.213C-33.917,42.213 -31.322,41.769 -29.031,40.88C-26.741,39.993 -24.8,38.696 -23.211,36.989C-21.622,35.283 -20.395,33.179 -19.529,30.677C-18.665,28.177 -18.232,25.337 -18.232,22.157L-18.232,-32.468C-18.232,-32.935 -18.092,-33.356 -17.812,-33.731C-17.531,-34.104 -17.04,-34.408 -16.338,-34.642C-15.638,-34.876 -14.691,-35.063 -13.499,-35.203C-12.307,-35.343 -10.823,-35.413 -9.046,-35.413C-7.27,-35.413 -5.809,-35.343 -4.664,-35.203C-3.519,-35.063 -2.595,-34.876 -1.893,-34.642C-1.192,-34.408 -0.701,-34.104 -0.421,-33.731C-0.141,-33.356 0,-32.935 0,-32.468L0,21.947Z" style="fill:white;fill-rule:nonzero;"/>
                    </g>
                    <g transform="matrix(1,0,0,1,365.176,462.091)">
                        <path d="M0,-37.586C0,-40.577 -0.678,-43.102 -2.033,-45.16C-3.39,-47.216 -5.61,-48.666 -8.695,-49.507C-9.631,-49.74 -10.694,-49.927 -11.886,-50.068C-13.078,-50.208 -14.726,-50.278 -16.829,-50.278L-25.104,-50.278L-25.104,-24.544L-15.708,-24.544C-13.09,-24.544 -10.799,-24.858 -8.835,-25.49C-6.872,-26.121 -5.236,-27.008 -3.927,-28.154C-2.619,-29.3 -1.637,-30.667 -0.981,-32.256C-0.328,-33.846 0,-35.623 0,-37.586M23.772,23.982C23.772,24.497 23.677,24.929 23.491,25.279C23.304,25.63 22.86,25.922 22.159,26.156C21.458,26.389 20.429,26.552 19.074,26.646C17.717,26.74 15.871,26.787 13.534,26.787C11.57,26.787 10.004,26.74 8.835,26.646C7.667,26.552 6.743,26.377 6.066,26.121C5.388,25.864 4.909,25.537 4.628,25.139C4.348,24.743 4.113,24.262 3.927,23.702L-4.207,3.436C-5.189,1.146 -6.148,-0.887 -7.082,-2.665C-8.018,-4.441 -9.058,-5.926 -10.203,-7.118C-11.349,-8.31 -12.669,-9.209 -14.165,-9.817C-15.662,-10.424 -17.391,-10.729 -19.354,-10.729L-25.104,-10.729L-25.104,23.842C-25.104,24.31 -25.256,24.73 -25.56,25.104C-25.864,25.479 -26.366,25.782 -27.067,26.016C-27.769,26.25 -28.705,26.436 -29.873,26.577C-31.041,26.717 -32.537,26.787 -34.36,26.787C-36.137,26.787 -37.621,26.717 -38.813,26.577C-40.005,26.436 -40.952,26.25 -41.653,26.016C-42.354,25.782 -42.845,25.479 -43.126,25.104C-43.406,24.73 -43.546,24.31 -43.546,23.842L-43.546,-58.553C-43.546,-60.609 -43.021,-62.094 -41.969,-63.005C-40.917,-63.918 -39.619,-64.373 -38.077,-64.373L-14.585,-64.373C-12.201,-64.373 -10.238,-64.326 -8.695,-64.232C-7.152,-64.138 -5.75,-64.023 -4.488,-63.882C-0.841,-63.367 2.442,-62.48 5.365,-61.217C8.286,-59.956 10.764,-58.308 12.797,-56.274C14.831,-54.24 16.385,-51.832 17.46,-49.051C18.536,-46.269 19.074,-43.079 19.074,-39.48C19.074,-36.44 18.687,-33.67 17.917,-31.169C17.146,-28.668 16.011,-26.437 14.516,-24.473C13.019,-22.51 11.172,-20.802 8.976,-19.354C6.778,-17.904 4.278,-16.735 1.473,-15.848C2.828,-15.192 4.102,-14.399 5.294,-13.464C6.486,-12.528 7.608,-11.395 8.66,-10.063C9.712,-8.731 10.705,-7.211 11.64,-5.504C12.575,-3.798 13.487,-1.87 14.375,0.28L22.019,18.162C22.72,19.939 23.187,21.236 23.421,22.054C23.654,22.872 23.772,23.515 23.772,23.982" style="fill:white;fill-rule:nonzero;"/>
                    </g>
                    <g transform="matrix(1,0,0,1,459.006,443.158)">
                        <path d="M0,-0.141C0,-4.909 -0.375,-9.245 -1.122,-13.149C-1.871,-17.051 -3.145,-20.394 -4.944,-23.176C-6.744,-25.957 -9.14,-28.108 -12.131,-29.627C-15.124,-31.146 -18.863,-31.907 -23.351,-31.907C-27.886,-31.907 -31.673,-31.053 -34.711,-29.347C-37.75,-27.64 -40.205,-25.361 -42.074,-22.51C-43.944,-19.658 -45.265,-16.327 -46.036,-12.517C-46.808,-8.707 -47.193,-4.675 -47.193,-0.421C-47.193,4.534 -46.819,8.987 -46.071,12.937C-45.324,16.888 -44.062,20.265 -42.285,23.07C-40.508,25.875 -38.124,28.014 -35.132,29.486C-32.141,30.959 -28.377,31.695 -23.842,31.695C-19.308,31.695 -15.521,30.854 -12.482,29.171C-9.443,27.488 -6.989,25.198 -5.119,22.298C-3.25,19.401 -1.928,16.023 -1.157,12.166C-0.386,8.309 0,4.207 0,-0.141M19.354,-1.122C19.354,6.405 18.418,13.137 16.549,19.073C14.679,25.01 11.896,30.047 8.205,34.185C4.511,38.322 -0.06,41.477 -5.504,43.651C-10.951,45.825 -17.25,46.912 -24.403,46.912C-31.462,46.912 -37.622,45.988 -42.88,44.142C-48.14,42.296 -52.522,39.479 -56.028,35.692C-59.535,31.905 -62.164,27.091 -63.917,21.247C-65.67,15.403 -66.547,8.484 -66.547,0.49C-66.547,-6.849 -65.612,-13.452 -63.742,-19.32C-61.873,-25.186 -59.091,-30.177 -55.397,-34.29C-51.705,-38.404 -47.135,-41.559 -41.688,-43.757C-36.243,-45.954 -29.919,-47.053 -22.72,-47.053C-15.848,-47.053 -9.782,-46.141 -4.523,-44.318C0.736,-42.495 5.13,-39.69 8.66,-35.904C12.189,-32.117 14.854,-27.336 16.654,-21.563C18.453,-15.789 19.354,-8.976 19.354,-1.122" style="fill:white;fill-rule:nonzero;"/>
                    </g>
                    <g transform="matrix(1,0,0,1,562.935,404.31)">
                        <path d="M0,77.696C0,78.772 -0.187,79.73 -0.561,80.571C-0.936,81.412 -1.438,82.113 -2.069,82.675C-2.699,83.236 -3.448,83.645 -4.313,83.902C-5.179,84.158 -6.055,84.287 -6.943,84.287L-14.796,84.287C-16.434,84.287 -17.847,84.124 -19.039,83.797C-20.231,83.47 -21.33,82.874 -22.334,82.008C-23.34,81.144 -24.31,79.975 -25.245,78.503C-26.181,77.029 -27.232,75.126 -28.4,72.787L-50.979,30.363C-52.289,27.839 -53.621,25.115 -54.977,22.194C-56.333,19.272 -57.548,16.433 -58.623,13.674L-58.764,13.674C-58.577,17.04 -58.437,20.395 -58.343,23.737C-58.25,27.079 -58.203,30.528 -58.203,34.079L-58.203,81.552C-58.203,82.02 -58.332,82.441 -58.588,82.815C-58.846,83.19 -59.29,83.505 -59.92,83.761C-60.552,84.019 -61.405,84.217 -62.48,84.358C-63.556,84.498 -64.934,84.568 -66.617,84.568C-68.254,84.568 -69.61,84.498 -70.684,84.358C-71.761,84.217 -72.602,84.019 -73.209,83.761C-73.817,83.505 -74.238,83.19 -74.471,82.815C-74.706,82.441 -74.822,82.02 -74.822,81.552L-74.822,0C-74.822,-2.198 -74.18,-3.845 -72.894,-4.944C-71.608,-6.042 -70.03,-6.592 -68.16,-6.592L-58.272,-6.592C-56.497,-6.592 -55.001,-6.44 -53.785,-6.137C-52.57,-5.831 -51.483,-5.33 -50.524,-4.629C-49.567,-3.927 -48.666,-2.956 -47.824,-1.719C-46.983,-0.479 -46.119,1.051 -45.23,2.875L-27.559,36.043C-26.531,38.053 -25.514,40.029 -24.508,41.968C-23.504,43.909 -22.534,45.849 -21.598,47.788C-20.664,49.729 -19.752,51.634 -18.863,53.503C-17.976,55.374 -17.11,57.244 -16.269,59.113L-16.199,59.113C-16.339,55.842 -16.444,52.428 -16.514,48.875C-16.584,45.323 -16.62,41.933 -16.62,38.707L-16.62,-3.857C-16.62,-4.324 -16.479,-4.745 -16.199,-5.119C-15.918,-5.493 -15.452,-5.821 -14.796,-6.101C-14.143,-6.382 -13.277,-6.58 -12.202,-6.697C-11.127,-6.813 -9.748,-6.872 -8.064,-6.872C-6.476,-6.872 -5.144,-6.813 -4.068,-6.697C-2.993,-6.58 -2.163,-6.382 -1.578,-6.101C-0.994,-5.821 -0.586,-5.493 -0.351,-5.119C-0.118,-4.745 0,-4.324 0,-3.857L0,77.696Z" style="fill:white;fill-rule:nonzero;"/>
                    </g>
                    <g transform="matrix(1,0,0,1,638.88,421.922)">
                        <path d="M0,39.282C0,37.083 -0.366,35.117 -1.1,33.382C-1.832,31.648 -2.907,30.195 -4.324,29.022C-5.741,27.849 -7.548,26.946 -9.746,26.31C-11.945,25.676 -14.803,25.357 -18.321,25.357L-29.753,25.357L-29.753,52.326L-15.83,52.326C-13.143,52.326 -10.882,52.046 -9.05,51.484C-7.218,50.923 -5.631,50.091 -4.287,48.991C-2.944,47.892 -1.894,46.525 -1.135,44.887C-0.379,43.252 0,41.383 0,39.282M-4.91,-1.318C-4.91,-3.224 -5.203,-4.933 -5.789,-6.448C-6.375,-7.962 -7.255,-9.22 -8.428,-10.222C-9.6,-11.223 -11.078,-11.993 -12.862,-12.531C-14.646,-13.068 -17.027,-13.337 -20.006,-13.337L-29.753,-13.337L-29.753,11.286L-18.981,11.286C-16.196,11.286 -13.973,10.957 -12.312,10.298C-10.651,9.637 -9.271,8.734 -8.171,7.586C-7.072,6.438 -6.254,5.094 -5.716,3.555C-5.179,2.016 -4.91,0.392 -4.91,-1.318M20.007,38.622C20.007,41.993 19.542,45.047 18.615,47.782C17.686,50.519 16.404,52.938 14.767,55.038C13.13,57.139 11.176,58.948 8.904,60.461C6.633,61.976 4.128,63.222 1.393,64.199C-1.344,65.176 -4.263,65.896 -7.365,66.36C-10.469,66.825 -13.924,67.056 -17.735,67.056L-42.944,67.056C-44.558,67.056 -45.913,66.58 -47.013,65.628C-48.112,64.675 -48.662,63.124 -48.662,60.974L-48.662,-21.692C-48.662,-23.841 -48.112,-25.393 -47.013,-26.345C-45.913,-27.298 -44.558,-27.774 -42.944,-27.774L-19.127,-27.774C-13.313,-27.774 -8.391,-27.285 -4.36,-26.308C-0.329,-25.331 3.065,-23.853 5.827,-21.875C8.586,-19.896 10.7,-17.392 12.166,-14.363C13.632,-11.333 14.364,-7.768 14.364,-3.664C14.364,-1.367 14.071,0.796 13.485,2.822C12.898,4.85 12.042,6.695 10.919,8.355C9.795,10.016 8.416,11.483 6.779,12.752C5.142,14.023 3.273,15.049 1.173,15.83C3.859,16.319 6.339,17.175 8.611,18.395C10.883,19.617 12.862,21.193 14.547,23.122C16.232,25.053 17.563,27.312 18.542,29.901C19.519,32.491 20.007,35.397 20.007,38.622" style="fill:white;fill-rule:nonzero;"/>
                    </g>
                    <g transform="matrix(1,0,0,1,711.448,462.613)">
                        <path d="M0,-37.587C0,-40.578 -0.679,-43.103 -2.034,-45.16C-3.39,-47.217 -5.61,-48.667 -8.696,-49.508C-9.631,-49.741 -10.694,-49.928 -11.886,-50.069C-13.079,-50.209 -14.727,-50.279 -16.83,-50.279L-25.104,-50.279L-25.104,-24.544L-15.708,-24.544C-13.09,-24.544 -10.799,-24.859 -8.836,-25.491C-6.873,-26.122 -5.236,-27.009 -3.928,-28.155C-2.619,-29.3 -1.637,-30.668 -0.982,-32.257C-0.328,-33.846 0,-35.624 0,-37.587M23.772,23.981C23.772,24.496 23.677,24.928 23.491,25.278C23.304,25.629 22.86,25.921 22.159,26.155C21.458,26.388 20.429,26.551 19.073,26.645C17.717,26.739 15.87,26.787 13.534,26.787C11.569,26.787 10.003,26.739 8.835,26.645C7.666,26.551 6.742,26.376 6.065,26.12C5.387,25.864 4.909,25.536 4.627,25.138C4.347,24.742 4.113,24.262 3.926,23.701L-4.208,3.435C-5.189,1.145 -6.148,-0.888 -7.083,-2.666C-8.019,-4.441 -9.058,-5.926 -10.204,-7.119C-11.35,-8.311 -12.669,-9.21 -14.165,-9.818C-15.662,-10.425 -17.391,-10.73 -19.354,-10.73L-25.104,-10.73L-25.104,23.841C-25.104,24.309 -25.257,24.729 -25.56,25.103C-25.865,25.478 -26.367,25.781 -27.068,26.015C-27.769,26.249 -28.704,26.435 -29.873,26.576C-31.042,26.716 -32.537,26.787 -34.36,26.787C-36.138,26.787 -37.622,26.716 -38.813,26.576C-40.006,26.435 -40.953,26.249 -41.654,26.015C-42.355,25.781 -42.846,25.478 -43.126,25.103C-43.406,24.729 -43.547,24.309 -43.547,23.841L-43.547,-58.554C-43.547,-60.61 -43.021,-62.095 -41.969,-63.006C-40.917,-63.918 -39.62,-64.374 -38.078,-64.374L-14.586,-64.374C-12.202,-64.374 -10.238,-64.327 -8.696,-64.233C-7.153,-64.139 -5.75,-64.024 -4.488,-63.883C-0.842,-63.368 2.442,-62.481 5.364,-61.218C8.286,-59.956 10.764,-58.308 12.797,-56.275C14.831,-54.241 16.385,-51.833 17.46,-49.052C18.536,-46.27 19.073,-43.08 19.073,-39.48C19.073,-36.441 18.687,-33.671 17.916,-31.17C17.145,-28.669 16.011,-26.438 14.516,-24.474C13.018,-22.511 11.172,-20.803 8.976,-19.355C6.777,-17.905 4.277,-16.736 1.472,-15.849C2.828,-15.193 4.102,-14.4 5.294,-13.464C6.486,-12.529 7.608,-11.396 8.66,-10.064C9.712,-8.731 10.705,-7.212 11.641,-5.505C12.575,-3.799 13.486,-1.87 14.375,0.279L22.018,18.161C22.719,19.938 23.186,21.235 23.421,22.053C23.654,22.871 23.772,23.514 23.772,23.981" style="fill:white;fill-rule:nonzero;"/>
                    </g>
                    <g transform="matrix(1,0,0,1,761.52,400.765)">
                        <path d="M0,85.689C0,86.157 -0.153,86.578 -0.456,86.951C-0.76,87.326 -1.262,87.629 -1.963,87.863C-2.665,88.097 -3.6,88.284 -4.769,88.424C-5.937,88.564 -7.433,88.635 -9.256,88.635C-11.033,88.635 -12.517,88.564 -13.708,88.424C-14.901,88.284 -15.847,88.097 -16.549,87.863C-17.25,87.629 -17.753,87.326 -18.057,86.951C-18.361,86.578 -18.513,86.157 -18.513,85.689L-18.513,-0.001C-18.513,-0.468 -18.361,-0.889 -18.057,-1.264C-17.753,-1.637 -17.239,-1.941 -16.514,-2.175C-15.79,-2.409 -14.843,-2.596 -13.674,-2.736C-12.505,-2.876 -11.033,-2.946 -9.256,-2.946C-7.433,-2.946 -5.937,-2.876 -4.769,-2.736C-3.6,-2.596 -2.665,-2.409 -1.963,-2.175C-1.262,-1.941 -0.76,-1.637 -0.456,-1.264C-0.153,-0.889 0,-0.468 0,-0.001L0,85.689Z" style="fill:white;fill-rule:nonzero;"/>
                    </g>
                    <g transform="matrix(1,0,0,1,831.859,444.311)">
                        <path d="M0,-1.403C0,-5.703 -0.503,-9.7 -1.507,-13.394C-2.513,-17.086 -4.126,-20.289 -6.346,-23.001C-8.567,-25.712 -11.419,-27.827 -14.901,-29.347C-18.384,-30.865 -22.954,-31.626 -28.609,-31.626L-37.937,-31.626L-37.937,30.082L-28.329,30.082C-23.281,30.082 -19.027,29.428 -15.567,28.119C-12.108,26.81 -9.221,24.835 -6.907,22.194C-4.593,19.553 -2.864,16.268 -1.718,12.341C-0.573,8.414 0,3.833 0,-1.403M19.073,-2.034C19.073,6.287 17.987,13.405 15.813,19.319C13.64,25.233 10.519,30.059 6.451,33.799C2.384,37.539 -2.559,40.285 -8.38,42.038C-14.2,43.792 -21.131,44.668 -29.171,44.668L-50.839,44.668C-52.382,44.668 -53.68,44.212 -54.731,43.301C-55.782,42.389 -56.309,40.906 -56.309,38.847L-56.309,-40.251C-56.309,-42.308 -55.782,-43.792 -54.731,-44.704C-53.68,-45.615 -52.382,-46.071 -50.839,-46.071L-27.558,-46.071C-19.471,-46.071 -12.61,-45.125 -6.977,-43.231C-1.344,-41.338 3.401,-38.533 7.258,-34.817C11.115,-31.1 14.047,-26.507 16.059,-21.037C18.068,-15.568 19.073,-9.233 19.073,-2.034" style="fill:white;fill-rule:nonzero;"/>
                    </g>
                    <g transform="matrix(1,0,0,1,933.123,474.885)">
                        <path d="M0,-62.55C0,-61.194 -0.059,-60.026 -0.175,-59.044C-0.292,-58.063 -0.455,-57.279 -0.666,-56.695C-0.876,-56.11 -1.133,-55.701 -1.437,-55.468C-1.742,-55.234 -2.103,-55.117 -2.524,-55.117C-3.132,-55.117 -4.114,-55.538 -5.469,-56.38C-6.826,-57.221 -8.625,-58.133 -10.869,-59.114C-13.112,-60.096 -15.79,-61.008 -18.898,-61.849C-22.007,-62.691 -25.619,-63.111 -29.732,-63.111C-34.127,-63.111 -38.1,-62.351 -41.653,-60.832C-45.206,-59.312 -48.245,-57.162 -50.769,-54.381C-53.293,-51.599 -55.233,-48.256 -56.589,-44.353C-57.945,-40.449 -58.623,-36.137 -58.623,-31.415C-58.623,-26.227 -57.933,-21.656 -56.554,-17.707C-55.176,-13.756 -53.248,-10.449 -50.769,-7.784C-48.292,-5.119 -45.311,-3.109 -41.828,-1.754C-38.346,-0.397 -34.5,0.28 -30.292,0.28C-28.236,0.28 -26.202,0.047 -24.192,-0.422C-22.183,-0.888 -20.312,-1.589 -18.582,-2.525L-18.582,-23.562L-35.762,-23.562C-36.604,-23.562 -37.259,-24.088 -37.726,-25.14C-38.194,-26.192 -38.428,-27.98 -38.428,-30.504C-38.428,-31.812 -38.369,-32.911 -38.252,-33.8C-38.135,-34.687 -37.96,-35.401 -37.726,-35.938C-37.493,-36.476 -37.212,-36.873 -36.884,-37.131C-36.558,-37.387 -36.183,-37.516 -35.762,-37.516L-5.119,-37.516C-4.372,-37.516 -3.705,-37.387 -3.121,-37.131C-2.536,-36.873 -2.022,-36.488 -1.577,-35.974C-1.133,-35.459 -0.795,-34.84 -0.561,-34.115C-0.327,-33.39 -0.209,-32.561 -0.209,-31.626L-0.209,4.487C-0.209,5.89 -0.455,7.117 -0.946,8.169C-1.437,9.221 -2.443,10.051 -3.961,10.658C-5.482,11.266 -7.362,11.898 -9.607,12.552C-11.85,13.207 -14.177,13.767 -16.584,14.234C-18.992,14.701 -21.422,15.052 -23.877,15.286C-26.331,15.52 -28.797,15.637 -31.275,15.637C-38.521,15.637 -45.007,14.596 -50.733,12.516C-56.46,10.437 -61.312,7.422 -65.284,3.471C-69.258,-0.479 -72.297,-5.295 -74.4,-10.975C-76.504,-16.655 -77.556,-23.094 -77.556,-30.294C-77.556,-37.727 -76.434,-44.399 -74.189,-50.314C-71.946,-56.227 -68.768,-61.253 -64.653,-65.39C-60.54,-69.528 -55.572,-72.694 -49.752,-74.892C-43.932,-77.089 -37.445,-78.187 -30.292,-78.187C-26.366,-78.187 -22.79,-77.918 -19.564,-77.382C-16.338,-76.843 -13.522,-76.189 -11.114,-75.418C-8.707,-74.647 -6.709,-73.816 -5.119,-72.928C-3.53,-72.04 -2.419,-71.268 -1.788,-70.614C-1.156,-69.959 -0.701,-69.037 -0.42,-67.844C-0.14,-66.653 0,-64.887 0,-62.55" style="fill:white;fill-rule:nonzero;"/>
                    </g>
                    <g transform="matrix(1,0,0,1,999.886,405.462)">
                        <path d="M0,76.294C0,77.65 -0.059,78.783 -0.176,79.695C-0.292,80.607 -0.468,81.343 -0.701,81.904C-0.936,82.465 -1.227,82.875 -1.578,83.131C-1.928,83.389 -2.314,83.517 -2.735,83.517L-48.315,83.517C-49.857,83.517 -51.155,83.061 -52.207,82.149C-53.258,81.238 -53.785,79.754 -53.785,77.696L-53.785,-1.402C-53.785,-3.459 -53.258,-4.943 -52.207,-5.855C-51.155,-6.767 -49.857,-7.223 -48.315,-7.223L-3.016,-7.223C-2.595,-7.223 -2.222,-7.105 -1.894,-6.872C-1.567,-6.638 -1.287,-6.228 -1.052,-5.644C-0.819,-5.06 -0.644,-4.312 -0.526,-3.401C-0.41,-2.489 -0.351,-1.332 -0.351,0.071C-0.351,1.38 -0.41,2.49 -0.526,3.401C-0.644,4.313 -0.819,5.049 -1.052,5.61C-1.287,6.171 -1.567,6.581 -1.894,6.837C-2.222,7.095 -2.595,7.223 -3.016,7.223L-35.413,7.223L-35.413,29.382L-7.995,29.382C-7.574,29.382 -7.187,29.511 -6.837,29.767C-6.486,30.025 -6.195,30.423 -5.96,30.96C-5.727,31.498 -5.551,32.222 -5.435,33.133C-5.319,34.045 -5.259,35.156 -5.259,36.464C-5.259,37.821 -5.319,38.943 -5.435,39.83C-5.551,40.719 -5.727,41.432 -5.96,41.969C-6.195,42.507 -6.486,42.893 -6.837,43.126C-7.187,43.361 -7.574,43.477 -7.995,43.477L-35.413,43.477L-35.413,69.071L-2.735,69.071C-2.314,69.071 -1.928,69.201 -1.578,69.457C-1.227,69.714 -0.936,70.124 -0.701,70.684C-0.468,71.245 -0.292,71.982 -0.176,72.893C-0.059,73.805 0,74.939 0,76.294" style="fill:white;fill-rule:nonzero;"/>
                    </g>
                </g>
            </g>
        </g>
    </g>
    <defs>
        <linearGradient id="_Linear2" x1="0" y1="0" x2="1" y2="0" gradientUnits="userSpaceOnUse" gradientTransform="matrix(1,0,0,-1,0,0)"><stop offset="0" style="stop-color:rgb(211,255,255);stop-opacity:1"/><stop offset="0" style="stop-color:rgb(211,255,255);stop-opacity:1"/><stop offset="0.44" style="stop-color:rgb(103,192,193);stop-opacity:1"/><stop offset="0.72" style="stop-color:rgb(56,131,136);stop-opacity:1"/><stop offset="1" style="stop-color:rgb(0,66,72);stop-opacity:1"/></linearGradient>
        <linearGradient id="_Linear3" x1="0" y1="0" x2="1" y2="0" gradientUnits="userSpaceOnUse" gradientTransform="matrix(2.88492e-14,471.143,-471.143,2.88492e-14,-451.076,-317.357)"><stop offset="0" style="stop-color:rgb(116,192,197);stop-opacity:1"/><stop offset="0.48" style="stop-color:rgb(174,221,222);stop-opacity:1"/><stop offset="1" style="stop-color:rgb(104,186,192);stop-opacity:1"/></linearGradient>
    </defs>
</svg>
